<?xml version="1.0" encoding="utf-8" standalone="no"?>
<!DOCTYPE svg PUBLIC "-//W3C//DTD SVG 1.1//EN"
  "http://www.w3.org/Graphics/SVG/1.1/DTD/svg11.dtd">
<svg xmlns:xlink="http://www.w3.org/1999/xlink" width="226.997578pt" height="206.1262pt" viewBox="0 0 226.997578 206.1262" xmlns="http://www.w3.org/2000/svg" version="1.1">
 <metadata>
  <rdf:RDF xmlns:dc="http://purl.org/dc/elements/1.1/" xmlns:cc="http://creativecommons.org/ns#" xmlns:rdf="http://www.w3.org/1999/02/22-rdf-syntax-ns#">
   <cc:Work>
    <dc:type rdf:resource="http://purl.org/dc/dcmitype/StillImage"/>
    <dc:date>2026-09-23T02:34:54.739166</dc:date>
    <dc:format>image/svg+xml</dc:format>
    <dc:creator>
     <cc:Agent>
      <dc:title>Matplotlib v3.10.8, https://matplotlib.org/</dc:title>
     </cc:Agent>
    </dc:creator>
   </cc:Work>
  </rdf:RDF>
 </metadata>
 <defs>
  <style type="text/css">*{stroke-linejoin: round; stroke-linecap: butt}</style>
 </defs>
 <g id="figure_1">
  <g id="patch_1">
   <path d="M 0 206.1262 
L 226.997578 206.1262 
L 226.997578 0 
L 0 0 
z
" style="fill: #ffffff"/>
  </g>
  <g id="axes_1">
   <g id="patch_2">
    <path d="M 35.837578 148.090763 
L 225.557578 148.090763 
L 225.557578 9.490762 
L 35.837578 9.490762 
z
" style="fill: #ffffff"/>
   </g>
   <g id="matplotlib.axis_1">
    <g id="xtick_1">
     <g id="line2d_1">
      <path d="M 38.712124 148.090763 
L 38.712124 9.490762 
" clip-path="url(#p8d772ccba6)" style="fill: none; stroke: #dddddd; stroke-opacity: 0.5; stroke-width: 0.6; stroke-linecap: square"/>
     </g>
     <g id="line2d_2">
      <defs>
       <path id="mc744e10fb6" d="M 0 0 
L 0 3.5 
" style="stroke: #444444; stroke-width: 0.8"/>
      </defs>
      <g>
       <use xlink:href="#mc744e10fb6" x="38.712124" y="148.090763" style="fill: #444444; stroke: #444444; stroke-width: 0.8"/>
      </g>
     </g>
     <g id="text_1">
      <text style="font-weight: 700; font-size: 7.5px; font-family: 'DejaVu Sans', 'Bitstream Vera Sans', 'Computer Modern Sans Serif', 'Lucida Grande', 'Verdana', 'Geneva', 'Lucid', 'Arial', 'Helvetica', 'Avant Garde', sans-serif; text-anchor: middle; fill: #444444" x="38.712124" y="160.789591" transform="rotate(-0 38.712124 160.789591)">0</text>
     </g>
    </g>
    <g id="xtick_2">
     <g id="line2d_3">
      <path d="M 67.457578 148.090763 
L 67.457578 9.490762 
" clip-path="url(#p8d772ccba6)" style="fill: none; stroke: #dddddd; stroke-opacity: 0.5; stroke-width: 0.6; stroke-linecap: square"/>
     </g>
     <g id="line2d_4">
      <g>
       <use xlink:href="#mc744e10fb6" x="67.457578" y="148.090763" style="fill: #444444; stroke: #444444; stroke-width: 0.8"/>
      </g>
     </g>
     <g id="text_2">
      <text style="font-weight: 700; font-size: 7.5px; font-family: 'DejaVu Sans', 'Bitstream Vera Sans', 'Computer Modern Sans Serif', 'Lucida Grande', 'Verdana', 'Geneva', 'Lucid', 'Arial', 'Helvetica', 'Avant Garde', sans-serif; text-anchor: middle; fill: #444444" x="67.457578" y="160.789591" transform="rotate(-0 67.457578 160.789591)">5</text>
     </g>
    </g>
    <g id="xtick_3">
     <g id="line2d_5">
      <path d="M 96.203033 148.090763 
L 96.203033 9.490762 
" clip-path="url(#p8d772ccba6)" style="fill: none; stroke: #dddddd; stroke-opacity: 0.5; stroke-width: 0.6; stroke-linecap: square"/>
     </g>
     <g id="line2d_6">
      <g>
       <use xlink:href="#mc744e10fb6" x="96.203033" y="148.090763" style="fill: #444444; stroke: #444444; stroke-width: 0.8"/>
      </g>
     </g>
     <g id="text_3">
      <text style="font-weight: 700; font-size: 7.5px; font-family: 'DejaVu Sans', 'Bitstream Vera Sans', 'Computer Modern Sans Serif', 'Lucida Grande', 'Verdana', 'Geneva', 'Lucid', 'Arial', 'Helvetica', 'Avant Garde', sans-serif; text-anchor: middle; fill: #444444" x="96.203033" y="160.789591" transform="rotate(-0 96.203033 160.789591)">10</text>
     </g>
    </g>
    <g id="xtick_4">
     <g id="line2d_7">
      <path d="M 124.948487 148.090763 
L 124.948487 9.490762 
" clip-path="url(#p8d772ccba6)" style="fill: none; stroke: #dddddd; stroke-opacity: 0.5; stroke-width: 0.6; stroke-linecap: square"/>
     </g>
     <g id="line2d_8">
      <g>
       <use xlink:href="#mc744e10fb6" x="124.948487" y="148.090763" style="fill: #444444; stroke: #444444; stroke-width: 0.8"/>
      </g>
     </g>
     <g id="text_4">
      <text style="font-weight: 700; font-size: 7.5px; font-family: 'DejaVu Sans', 'Bitstream Vera Sans', 'Computer Modern Sans Serif', 'Lucida Grande', 'Verdana', 'Geneva', 'Lucid', 'Arial', 'Helvetica', 'Avant Garde', sans-serif; text-anchor: middle; fill: #444444" x="124.948487" y="160.789591" transform="rotate(-0 124.948487 160.789591)">15</text>
     </g>
    </g>
    <g id="xtick_5">
     <g id="line2d_9">
      <path d="M 153.693942 148.090763 
L 153.693942 9.490762 
" clip-path="url(#p8d772ccba6)" style="fill: none; stroke: #dddddd; stroke-opacity: 0.5; stroke-width: 0.6; stroke-linecap: square"/>
     </g>
     <g id="line2d_10">
      <g>
       <use xlink:href="#mc744e10fb6" x="153.693942" y="148.090763" style="fill: #444444; stroke: #444444; stroke-width: 0.8"/>
      </g>
     </g>
     <g id="text_5">
      <text style="font-weight: 700; font-size: 7.5px; font-family: 'DejaVu Sans', 'Bitstream Vera Sans', 'Computer Modern Sans Serif', 'Lucida Grande', 'Verdana', 'Geneva', 'Lucid', 'Arial', 'Helvetica', 'Avant Garde', sans-serif; text-anchor: middle; fill: #444444" x="153.693942" y="160.789591" transform="rotate(-0 153.693942 160.789591)">20</text>
     </g>
    </g>
    <g id="xtick_6">
     <g id="line2d_11">
      <path d="M 182.439396 148.090763 
L 182.439396 9.490762 
" clip-path="url(#p8d772ccba6)" style="fill: none; stroke: #dddddd; stroke-opacity: 0.5; stroke-width: 0.6; stroke-linecap: square"/>
     </g>
     <g id="line2d_12">
      <g>
       <use xlink:href="#mc744e10fb6" x="182.439396" y="148.090763" style="fill: #444444; stroke: #444444; stroke-width: 0.8"/>
      </g>
     </g>
     <g id="text_6">
      <text style="font-weight: 700; font-size: 7.5px; font-family: 'DejaVu Sans', 'Bitstream Vera Sans', 'Computer Modern Sans Serif', 'Lucida Grande', 'Verdana', 'Geneva', 'Lucid', 'Arial', 'Helvetica', 'Avant Garde', sans-serif; text-anchor: middle; fill: #444444" x="182.439396" y="160.789591" transform="rotate(-0 182.439396 160.789591)">25</text>
     </g>
    </g>
    <g id="xtick_7">
     <g id="line2d_13">
      <path d="M 211.184851 148.090763 
L 211.184851 9.490762 
" clip-path="url(#p8d772ccba6)" style="fill: none; stroke: #dddddd; stroke-opacity: 0.5; stroke-width: 0.6; stroke-linecap: square"/>
     </g>
     <g id="line2d_14">
      <g>
       <use xlink:href="#mc744e10fb6" x="211.184851" y="148.090763" style="fill: #444444; stroke: #444444; stroke-width: 0.8"/>
      </g>
     </g>
     <g id="text_7">
      <text style="font-weight: 700; font-size: 7.5px; font-family: 'DejaVu Sans', 'Bitstream Vera Sans', 'Computer Modern Sans Serif', 'Lucida Grande', 'Verdana', 'Geneva', 'Lucid', 'Arial', 'Helvetica', 'Avant Garde', sans-serif; text-anchor: middle; fill: #444444" x="211.184851" y="160.789591" transform="rotate(-0 211.184851 160.789591)">30</text>
     </g>
    </g>
    <g id="text_8">
     <text style="font-weight: 700; font-size: 8px; font-family: 'DejaVu Sans', 'Bitstream Vera Sans', 'Computer Modern Sans Serif', 'Lucida Grande', 'Verdana', 'Geneva', 'Lucid', 'Arial', 'Helvetica', 'Avant Garde', sans-serif; text-anchor: middle" x="130.697578" y="172.365606" transform="rotate(-0 130.697578 172.365606)">Day</text>
    </g>
   </g>
   <g id="matplotlib.axis_2">
    <g id="ytick_1">
     <g id="line2d_15">
      <path d="M 35.837578 148.090763 
L 225.557578 148.090763 
" clip-path="url(#p8d772ccba6)" style="fill: none; stroke: #dddddd; stroke-opacity: 0.5; stroke-width: 0.6; stroke-linecap: square"/>
     </g>
     <g id="line2d_16">
      <defs>
       <path id="m50a45bcecd" d="M 0 0 
L -3.5 0 
" style="stroke: #444444; stroke-width: 0.8"/>
      </defs>
      <g>
       <use xlink:href="#m50a45bcecd" x="35.837578" y="148.090763" style="fill: #444444; stroke: #444444; stroke-width: 0.8"/>
      </g>
     </g>
     <g id="text_9">
      <text style="font-weight: 700; font-size: 7.5px; font-family: 'DejaVu Sans', 'Bitstream Vera Sans', 'Computer Modern Sans Serif', 'Lucida Grande', 'Verdana', 'Geneva', 'Lucid', 'Arial', 'Helvetica', 'Avant Garde', sans-serif; text-anchor: end; fill: #444444" x="28.837578" y="150.940177" transform="rotate(-0 28.837578 150.940177)">30</text>
     </g>
    </g>
    <g id="ytick_2">
     <g id="line2d_17">
      <path d="M 35.837578 128.290763 
L 225.557578 128.290763 
" clip-path="url(#p8d772ccba6)" style="fill: none; stroke: #dddddd; stroke-opacity: 0.5; stroke-width: 0.6; stroke-linecap: square"/>
     </g>
     <g id="line2d_18">
      <g>
       <use xlink:href="#m50a45bcecd" x="35.837578" y="128.290763" style="fill: #444444; stroke: #444444; stroke-width: 0.8"/>
      </g>
     </g>
     <g id="text_10">
      <text style="font-weight: 700; font-size: 7.5px; font-family: 'DejaVu Sans', 'Bitstream Vera Sans', 'Computer Modern Sans Serif', 'Lucida Grande', 'Verdana', 'Geneva', 'Lucid', 'Arial', 'Helvetica', 'Avant Garde', sans-serif; text-anchor: end; fill: #444444" x="28.837578" y="131.140177" transform="rotate(-0 28.837578 131.140177)">40</text>
     </g>
    </g>
    <g id="ytick_3">
     <g id="line2d_19">
      <path d="M 35.837578 108.490763 
L 225.557578 108.490763 
" clip-path="url(#p8d772ccba6)" style="fill: none; stroke: #dddddd; stroke-opacity: 0.5; stroke-width: 0.6; stroke-linecap: square"/>
     </g>
     <g id="line2d_20">
      <g>
       <use xlink:href="#m50a45bcecd" x="35.837578" y="108.490763" style="fill: #444444; stroke: #444444; stroke-width: 0.8"/>
      </g>
     </g>
     <g id="text_11">
      <text style="font-weight: 700; font-size: 7.5px; font-family: 'DejaVu Sans', 'Bitstream Vera Sans', 'Computer Modern Sans Serif', 'Lucida Grande', 'Verdana', 'Geneva', 'Lucid', 'Arial', 'Helvetica', 'Avant Garde', sans-serif; text-anchor: end; fill: #444444" x="28.837578" y="111.340177" transform="rotate(-0 28.837578 111.340177)">50</text>
     </g>
    </g>
    <g id="ytick_4">
     <g id="line2d_21">
      <path d="M 35.837578 88.690763 
L 225.557578 88.690763 
" clip-path="url(#p8d772ccba6)" style="fill: none; stroke: #dddddd; stroke-opacity: 0.5; stroke-width: 0.6; stroke-linecap: square"/>
     </g>
     <g id="line2d_22">
      <g>
       <use xlink:href="#m50a45bcecd" x="35.837578" y="88.690763" style="fill: #444444; stroke: #444444; stroke-width: 0.8"/>
      </g>
     </g>
     <g id="text_12">
      <text style="font-weight: 700; font-size: 7.5px; font-family: 'DejaVu Sans', 'Bitstream Vera Sans', 'Computer Modern Sans Serif', 'Lucida Grande', 'Verdana', 'Geneva', 'Lucid', 'Arial', 'Helvetica', 'Avant Garde', sans-serif; text-anchor: end; fill: #444444" x="28.837578" y="91.540177" transform="rotate(-0 28.837578 91.540177)">60</text>
     </g>
    </g>
    <g id="ytick_5">
     <g id="line2d_23">
      <path d="M 35.837578 68.890762 
L 225.557578 68.890762 
" clip-path="url(#p8d772ccba6)" style="fill: none; stroke: #dddddd; stroke-opacity: 0.5; stroke-width: 0.6; stroke-linecap: square"/>
     </g>
     <g id="line2d_24">
      <g>
       <use xlink:href="#m50a45bcecd" x="35.837578" y="68.890762" style="fill: #444444; stroke: #444444; stroke-width: 0.8"/>
      </g>
     </g>
     <g id="text_13">
      <text style="font-weight: 700; font-size: 7.5px; font-family: 'DejaVu Sans', 'Bitstream Vera Sans', 'Computer Modern Sans Serif', 'Lucida Grande', 'Verdana', 'Geneva', 'Lucid', 'Arial', 'Helvetica', 'Avant Garde', sans-serif; text-anchor: end; fill: #444444" x="28.837578" y="71.740177" transform="rotate(-0 28.837578 71.740177)">70</text>
     </g>
    </g>
    <g id="ytick_6">
     <g id="line2d_25">
      <path d="M 35.837578 49.090763 
L 225.557578 49.090763 
" clip-path="url(#p8d772ccba6)" style="fill: none; stroke: #dddddd; stroke-opacity: 0.5; stroke-width: 0.6; stroke-linecap: square"/>
     </g>
     <g id="line2d_26">
      <g>
       <use xlink:href="#m50a45bcecd" x="35.837578" y="49.090763" style="fill: #444444; stroke: #444444; stroke-width: 0.8"/>
      </g>
     </g>
     <g id="text_14">
      <text style="font-weight: 700; font-size: 7.5px; font-family: 'DejaVu Sans', 'Bitstream Vera Sans', 'Computer Modern Sans Serif', 'Lucida Grande', 'Verdana', 'Geneva', 'Lucid', 'Arial', 'Helvetica', 'Avant Garde', sans-serif; text-anchor: end; fill: #444444" x="28.837578" y="51.940177" transform="rotate(-0 28.837578 51.940177)">80</text>
     </g>
    </g>
    <g id="ytick_7">
     <g id="line2d_27">
      <path d="M 35.837578 29.290762 
L 225.557578 29.290762 
" clip-path="url(#p8d772ccba6)" style="fill: none; stroke: #dddddd; stroke-opacity: 0.5; stroke-width: 0.6; stroke-linecap: square"/>
     </g>
     <g id="line2d_28">
      <g>
       <use xlink:href="#m50a45bcecd" x="35.837578" y="29.290762" style="fill: #444444; stroke: #444444; stroke-width: 0.8"/>
      </g>
     </g>
     <g id="text_15">
      <text style="font-weight: 700; font-size: 7.5px; font-family: 'DejaVu Sans', 'Bitstream Vera Sans', 'Computer Modern Sans Serif', 'Lucida Grande', 'Verdana', 'Geneva', 'Lucid', 'Arial', 'Helvetica', 'Avant Garde', sans-serif; text-anchor: end; fill: #444444" x="28.837578" y="32.140177" transform="rotate(-0 28.837578 32.140177)">90</text>
     </g>
    </g>
    <g id="ytick_8">
     <g id="line2d_29">
      <path d="M 35.837578 9.490762 
L 225.557578 9.490762 
" clip-path="url(#p8d772ccba6)" style="fill: none; stroke: #dddddd; stroke-opacity: 0.5; stroke-width: 0.6; stroke-linecap: square"/>
     </g>
     <g id="line2d_30">
      <g>
       <use xlink:href="#m50a45bcecd" x="35.837578" y="9.490762" style="fill: #444444; stroke: #444444; stroke-width: 0.8"/>
      </g>
     </g>
     <g id="text_16">
      <text style="font-weight: 700; font-size: 7.5px; font-family: 'DejaVu Sans', 'Bitstream Vera Sans', 'Computer Modern Sans Serif', 'Lucida Grande', 'Verdana', 'Geneva', 'Lucid', 'Arial', 'Helvetica', 'Avant Garde', sans-serif; text-anchor: end; fill: #444444" x="28.837578" y="12.340177" transform="rotate(-0 28.837578 12.340177)">100</text>
     </g>
    </g>
    <g id="text_17">
     <text style="font-weight: 700; font-size: 8px; font-family: 'DejaVu Sans', 'Bitstream Vera Sans', 'Computer Modern Sans Serif', 'Lucida Grande', 'Verdana', 'Geneva', 'Lucid', 'Arial', 'Helvetica', 'Avant Garde', sans-serif; text-anchor: middle" x="7.45625" y="78.790762" transform="rotate(-90 7.45625 78.790762)">Accuracy</text>
    </g>
   </g>
   <g id="line2d_31">
    <path d="M 119.199396 148.090763 
L 119.199396 9.490762 
" clip-path="url(#p8d772ccba6)" style="fill: none; stroke-dasharray: 0.9,1.485; stroke-dashoffset: 0; stroke: #141413; stroke-opacity: 0.75; stroke-width: 0.9"/>
   </g>
   <g id="line2d_32">
    <path d="M 176.690305 148.090763 
L 176.690305 9.490762 
" clip-path="url(#p8d772ccba6)" style="fill: none; stroke-dasharray: 0.9,1.485; stroke-dashoffset: 0; stroke: #141413; stroke-opacity: 0.75; stroke-width: 0.9"/>
   </g>
   <g id="FillBetweenPolyCollection_1">
    <defs>
     <path id="m55f63066ed" d="M 159.443033 -159.943511 
L 159.443033 -151.652364 
L 165.192124 -160.491982 
L 170.941214 -154.784494 
L 176.690305 -123.785035 
L 182.439396 -117.960887 
L 188.188487 -116.470449 
L 193.937578 -123.914738 
L 199.686669 -118.267954 
L 205.43576 -131.36912 
L 211.184851 -123.195687 
L 216.933942 -130.33538 
L 216.933942 -156.129726 
L 216.933942 -156.129726 
L 211.184851 -151.211726 
L 205.43576 -148.32747 
L 199.686669 -142.38858 
L 193.937578 -139.756796 
L 188.188487 -131.160426 
L 182.439396 -140.779988 
L 176.690305 -140.264412 
L 170.941214 -166.711381 
L 165.192124 -173.378893 
L 159.443033 -159.943511 
z
"/>
    </defs>
    <g clip-path="url(#p8d772ccba6)">
     <use xlink:href="#m55f63066ed" x="0" y="206.1262" style="fill: #b178d7; fill-opacity: 0.13"/>
    </g>
   </g>
   <g id="FillBetweenPolyCollection_2">
    <defs>
     <path id="m3fd9ec2d8f" d="M 119.199396 -137.45166 
L 119.199396 -124.644215 
L 124.948487 -137.099188 
L 130.697578 -140.890865 
L 136.446669 -152.085438 
L 142.19576 -140.449071 
L 147.944851 -157.860438 
L 153.693942 -151.507434 
L 159.443033 -152.592677 
L 165.192124 -159.510438 
L 170.941214 -154.784494 
L 176.690305 -103.812664 
L 182.439396 -94.734333 
L 188.188487 -101.995195 
L 193.937578 -113.46687 
L 199.686669 -116.392086 
L 205.43576 -111.066004 
L 211.184851 -114.959906 
L 216.933942 -111.748616 
L 216.933942 -131.659347 
L 216.933942 -131.659347 
L 211.184851 -136.8552 
L 205.43576 -125.053442 
L 199.686669 -130.010163 
L 193.937578 -129.367522 
L 188.188487 -115.44068 
L 182.439396 -123.746542 
L 176.690305 -119.158211 
L 170.941214 -166.711381 
L 165.192124 -171.885438 
L 159.443033 -161.478198 
L 153.693942 -165.038441 
L 147.944851 -163.635437 
L 142.19576 -156.296804 
L 136.446669 -159.510438 
L 130.697578 -155.85501 
L 124.948487 -152.221687 
L 119.199396 -137.45166 
z
"/>
    </defs>
    <g clip-path="url(#p8d772ccba6)">
     <use xlink:href="#m3fd9ec2d8f" x="0" y="206.1262" style="fill: #712d9e; fill-opacity: 0.13"/>
    </g>
   </g>
   <g id="FillBetweenPolyCollection_3">
    <defs>
     <path id="md7e42946a3" d="M 44.461214 -98.49171 
L 44.461214 -72.987737 
L 50.210305 -98.969712 
L 55.959396 -110.304776 
L 61.708487 -122.73572 
L 67.457578 -116.292045 
L 73.206669 -120.926812 
L 78.95576 -110.84872 
L 84.704851 -119.532474 
L 90.453942 -112.529512 
L 96.203033 -126.992128 
L 101.952124 -124.724556 
L 107.701214 -119.376792 
L 113.450305 -149.755794 
L 119.199396 -108.993935 
L 124.948487 -110.412631 
L 130.697578 -121.740015 
L 136.446669 -127.381413 
L 142.19576 -118.532649 
L 147.944851 -133.743935 
L 153.693942 -133.008106 
L 159.443033 -132.923318 
L 165.192124 -136.011703 
L 170.941214 -145.229103 
L 176.690305 -118.976284 
L 182.439396 -115.469883 
L 188.188487 -119.098012 
L 193.937578 -120.264768 
L 199.686669 -125.881864 
L 205.43576 -121.052024 
L 211.184851 -141.610371 
L 216.933942 -121.902864 
L 216.933942 -151.658396 
L 216.933942 -151.658396 
L 211.184851 -160.532757 
L 205.43576 -142.24528 
L 199.686669 -134.11467 
L 193.937578 -141.414074 
L 188.188487 -139.532863 
L 182.439396 -136.395992 
L 176.690305 -130.251734 
L 170.941214 -161.416772 
L 165.192124 -148.359172 
L 159.443033 -144.022557 
L 153.693942 -146.412769 
L 147.944851 -148.15194 
L 142.19576 -137.906083 
L 136.446669 -142.139462 
L 130.697578 -132.93086 
L 124.948487 -126.933244 
L 119.199396 -123.40194 
L 113.450305 -158.353323 
L 107.701214 -144.369083 
L 101.952124 -147.412143 
L 96.203033 -146.323747 
L 90.453942 -131.502902 
L 84.704851 -142.591973 
L 78.95576 -133.167869 
L 73.206669 -145.162909 
L 67.457578 -137.514545 
L 61.708487 -146.824441 
L 55.959396 -144.507528 
L 50.210305 -129.813306 
L 44.461214 -98.49171 
z
"/>
    </defs>
    <g clip-path="url(#p8d772ccba6)">
     <use xlink:href="#md7e42946a3" x="0" y="206.1262" style="fill: #2d123f; fill-opacity: 0.13"/>
    </g>
   </g>
   <g id="patch_3">
    <path d="M 35.837578 148.090763 
L 35.837578 9.490762 
" style="fill: none; stroke: #444444; stroke-width: 0.8; stroke-linejoin: miter; stroke-linecap: square"/>
   </g>
   <g id="patch_4">
    <path d="M 35.837578 148.090763 
L 225.557578 148.090763 
" style="fill: none; stroke: #444444; stroke-width: 0.8; stroke-linejoin: miter; stroke-linecap: square"/>
   </g>
   <g id="text_18">
    <text style="font-weight: 700; font-size: 6.6px; font-family: 'DejaVu Sans', 'Bitstream Vera Sans', 'Computer Modern Sans Serif', 'Lucida Grande', 'Verdana', 'Geneva', 'Lucid', 'Arial', 'Helvetica', 'Avant Garde', sans-serif; text-anchor: middle; fill: #555555" x="78.95576" y="6.454969" transform="rotate(-0 78.95576 6.454969)">normal</text>
   </g>
   <g id="text_19">
    <text style="font-weight: 700; font-size: 6.6px; font-family: 'DejaVu Sans', 'Bitstream Vera Sans', 'Computer Modern Sans Serif', 'Lucida Grande', 'Verdana', 'Geneva', 'Lucid', 'Arial', 'Helvetica', 'Avant Garde', sans-serif; text-anchor: middle; fill: #555555" x="145.070305" y="6.454969" transform="rotate(-0 145.070305 6.454969)">sick</text>
   </g>
   <g id="text_20">
    <text style="font-weight: 700; font-size: 6.6px; font-family: 'DejaVu Sans', 'Bitstream Vera Sans', 'Computer Modern Sans Serif', 'Lucida Grande', 'Verdana', 'Geneva', 'Lucid', 'Arial', 'Helvetica', 'Avant Garde', sans-serif; text-anchor: middle; fill: #555555" x="196.812124" y="6.454969" transform="rotate(-0 196.812124 6.454969)">normal</text>
   </g>
   <g id="line2d_33">
    <path d="M 159.443033 44.759512 
L 165.192124 44.965763 
L 170.941214 42.284513 
L 176.690305 75.42862 
L 182.439396 77.722667 
L 188.188487 77.785653 
L 193.937578 77.466376 
L 199.686669 72.12209 
L 205.43576 70.332777 
L 211.184851 66.031349 
L 216.933942 65.90807 
" clip-path="url(#p8d772ccba6)" style="fill: none; stroke: #b178d7; stroke-width: 1.6; stroke-linecap: square"/>
    <defs>
     <path id="mf8b1bef0f1" d="M 0 -1.7 
L -1.7 1.7 
L 1.7 1.7 
z
" style="stroke: #ffffff; stroke-width: 0.5; stroke-linejoin: miter"/>
    </defs>
    <g clip-path="url(#p8d772ccba6)">
     <use xlink:href="#mf8b1bef0f1" x="159.443033" y="44.759512" style="fill: #b178d7; stroke: #ffffff; stroke-width: 0.5; stroke-linejoin: miter"/>
     <use xlink:href="#mf8b1bef0f1" x="176.690305" y="75.42862" style="fill: #b178d7; stroke: #ffffff; stroke-width: 0.5; stroke-linejoin: miter"/>
     <use xlink:href="#mf8b1bef0f1" x="193.937578" y="77.466376" style="fill: #b178d7; stroke: #ffffff; stroke-width: 0.5; stroke-linejoin: miter"/>
     <use xlink:href="#mf8b1bef0f1" x="211.184851" y="66.031349" style="fill: #b178d7; stroke: #ffffff; stroke-width: 0.5; stroke-linejoin: miter"/>
    </g>
   </g>
   <g id="line2d_34">
    <path d="M 119.199396 68.272012 
L 124.948487 64.765763 
L 130.697578 56.515762 
L 136.446669 55.278263 
L 142.19576 51.153263 
L 147.944851 50.328262 
L 153.693942 47.440763 
L 159.443033 45.790762 
L 165.192124 44.965763 
L 170.941214 42.903263 
L 176.690305 95.763263 
L 182.439396 96.311596 
L 188.188487 93.00101 
L 193.937578 88.347447 
L 199.686669 85.233519 
L 205.43576 83.736733 
L 211.184851 84.235781 
L 216.933942 82.320433 
" clip-path="url(#p8d772ccba6)" style="fill: none; stroke: #712d9e; stroke-width: 1.6; stroke-linecap: square"/>
    <defs>
     <path id="m4f8874d167" d="M -1.7 1.7 
L 1.7 1.7 
L 1.7 -1.7 
L -1.7 -1.7 
z
" style="stroke: #ffffff; stroke-width: 0.5; stroke-linejoin: miter"/>
    </defs>
    <g clip-path="url(#p8d772ccba6)">
     <use xlink:href="#m4f8874d167" x="119.199396" y="68.272012" style="fill: #712d9e; stroke: #ffffff; stroke-width: 0.5; stroke-linejoin: miter"/>
     <use xlink:href="#m4f8874d167" x="136.446669" y="55.278263" style="fill: #712d9e; stroke: #ffffff; stroke-width: 0.5; stroke-linejoin: miter"/>
     <use xlink:href="#m4f8874d167" x="153.693942" y="47.440763" style="fill: #712d9e; stroke: #ffffff; stroke-width: 0.5; stroke-linejoin: miter"/>
     <use xlink:href="#m4f8874d167" x="170.941214" y="42.903263" style="fill: #712d9e; stroke: #ffffff; stroke-width: 0.5; stroke-linejoin: miter"/>
     <use xlink:href="#m4f8874d167" x="188.188487" y="93.00101" style="fill: #712d9e; stroke: #ffffff; stroke-width: 0.5; stroke-linejoin: miter"/>
     <use xlink:href="#m4f8874d167" x="205.43576" y="83.736733" style="fill: #712d9e; stroke: #ffffff; stroke-width: 0.5; stroke-linejoin: miter"/>
    </g>
   </g>
   <g id="line2d_35">
    <path d="M 44.461214 106.060584 
L 50.210305 96.947072 
L 55.959396 80.600286 
L 61.708487 76.429691 
L 67.457578 74.550121 
L 73.206669 78.807383 
L 78.95576 77.421074 
L 84.704851 81.097292 
L 90.453942 76.214078 
L 96.203033 74.545369 
L 101.952124 71.259792 
L 107.701214 65.460918 
L 113.450305 63.162452 
L 119.199396 88.690763 
L 124.948487 85.390763 
L 130.697578 79.203262 
L 136.446669 76.02112 
L 142.19576 71.48362 
L 147.944851 69.83362 
L 153.693942 66.415762 
L 159.443033 66.003263 
L 165.192124 61.465763 
L 170.941214 58.372013 
L 176.690305 80.852727 
L 182.439396 79.505405 
L 188.188487 77.430268 
L 193.937578 76.075158 
L 199.686669 75.29742 
L 205.43576 68.553372 
L 211.184851 66.292585 
L 216.933942 62.200103 
" clip-path="url(#p8d772ccba6)" style="fill: none; stroke: #2d123f; stroke-width: 1.6; stroke-linecap: square"/>
   </g>
   <g id="legend_1">
    <g id="line2d_36">
     <path d="M 99.104609 177.321669 
L 104.354609 177.321669 
L 109.604609 177.321669 
" style="fill: none; stroke: #2d123f; stroke-width: 1.6; stroke-linecap: square"/>
    </g>
    <g id="text_21">
     <text style="font-weight: 700; font-size: 7px; font-family: 'DejaVu Sans', 'Bitstream Vera Sans', 'Computer Modern Sans Serif', 'Lucida Grande', 'Verdana', 'Geneva', 'Lucid', 'Arial', 'Helvetica', 'Avant Garde', sans-serif; text-anchor: start" x="115.204609" y="179.771669" transform="rotate(-0 115.204609 179.771669)">no message</text>
    </g>
    <g id="line2d_37">
     <path d="M 99.104609 187.651044 
L 104.354609 187.651044 
L 109.604609 187.651044 
" style="fill: none; stroke: #712d9e; stroke-width: 1.6; stroke-linecap: square"/>
     <defs>
      <path id="m5d6af99a1c" d="M -1.7 1.7 
L 1.7 1.7 
L 1.7 -1.7 
L -1.7 -1.7 
z
" style="stroke: #712d9e; stroke-linejoin: miter"/>
     </defs>
     <g>
      <use xlink:href="#m5d6af99a1c" x="104.354609" y="187.651044" style="fill: #712d9e; stroke: #712d9e; stroke-linejoin: miter"/>
     </g>
    </g>
    <g id="text_22">
     <text style="font-weight: 700; font-size: 7px; font-family: 'DejaVu Sans', 'Bitstream Vera Sans', 'Computer Modern Sans Serif', 'Lucida Grande', 'Verdana', 'Geneva', 'Lucid', 'Arial', 'Helvetica', 'Avant Garde', sans-serif; text-anchor: start" x="115.204609" y="190.101044" transform="rotate(-0 115.204609 190.101044)">A only</text>
    </g>
    <g id="line2d_38">
     <path d="M 99.104609 197.980419 
L 104.354609 197.980419 
L 109.604609 197.980419 
" style="fill: none; stroke: #b178d7; stroke-width: 1.6; stroke-linecap: square"/>
     <defs>
      <path id="m6a50fa3e4f" d="M 0 -1.7 
L -1.7 1.7 
L 1.7 1.7 
z
" style="stroke: #b178d7; stroke-linejoin: miter"/>
     </defs>
     <g>
      <use xlink:href="#m6a50fa3e4f" x="104.354609" y="197.980419" style="fill: #b178d7; stroke: #b178d7; stroke-linejoin: miter"/>
     </g>
    </g>
    <g id="text_23">
     <text style="font-weight: 700; font-size: 7px; font-family: 'DejaVu Sans', 'Bitstream Vera Sans', 'Computer Modern Sans Serif', 'Lucida Grande', 'Verdana', 'Geneva', 'Lucid', 'Arial', 'Helvetica', 'Avant Garde', sans-serif; text-anchor: start" x="115.204609" y="200.430419" transform="rotate(-0 115.204609 200.430419)">A &amp; B</text>
    </g>
   </g>
   <g id="text_24">
    <g id="patch_5">
     <path d="M 114.635295 23.843169 
L 123.763498 23.843169 
L 123.763498 13.066762 
L 114.635295 13.066762 
z
" style="fill: #ffffff; opacity: 0.9"/>
    </g>
    <text style="font-weight: 700; font-size: 8.5px; font-family: 'DejaVu Sans', 'Bitstream Vera Sans', 'Computer Modern Sans Serif', 'Lucida Grande', 'Verdana', 'Geneva', 'Lucid', 'Arial', 'Helvetica', 'Avant Garde', sans-serif; text-anchor: middle; fill: #cc1f1f" x="119.199396" y="20.800434" transform="rotate(-0 119.199396 20.800434)">A</text>
   </g>
   <g id="text_25">
    <g id="patch_6">
     <path d="M 172.176009 23.843169 
L 181.204602 23.843169 
L 181.204602 13.066762 
L 172.176009 13.066762 
z
" style="fill: #ffffff; opacity: 0.9"/>
    </g>
    <text style="font-weight: 700; font-size: 8.5px; font-family: 'DejaVu Sans', 'Bitstream Vera Sans', 'Computer Modern Sans Serif', 'Lucida Grande', 'Verdana', 'Geneva', 'Lucid', 'Arial', 'Helvetica', 'Avant Garde', sans-serif; text-anchor: middle; fill: #cc1f1f" x="176.690305" y="20.800434" transform="rotate(-0 176.690305 20.800434)">B</text>
   </g>
  </g>
 </g>
 <defs>
  <clipPath id="p8d772ccba6">
   <rect x="35.837578" y="9.490762" width="189.72" height="138.6"/>
  </clipPath>
 </defs>
</svg>
