<?xml version="1.0" encoding="utf-8" standalone="no"?>
<!DOCTYPE svg PUBLIC "-//W3C//DTD SVG 1.1//EN"
  "http://www.w3.org/Graphics/SVG/1.1/DTD/svg11.dtd">
<svg xmlns:xlink="http://www.w3.org/1999/xlink" width="226.997578pt" height="206.513325pt" viewBox="0 0 226.997578 206.513325" xmlns="http://www.w3.org/2000/svg" version="1.1">
 <metadata>
  <rdf:RDF xmlns:dc="http://purl.org/dc/elements/1.1/" xmlns:cc="http://creativecommons.org/ns#" xmlns:rdf="http://www.w3.org/1999/02/22-rdf-syntax-ns#">
   <cc:Work>
    <dc:type rdf:resource="http://purl.org/dc/dcmitype/StillImage"/>
    <dc:date>2026-09-22T21:06:10.104683</dc:date>
    <dc:format>image/svg+xml</dc:format>
    <dc:creator>
     <cc:Agent>
      <dc:title>Matplotlib v3.10.8, https://matplotlib.org/</dc:title>
     </cc:Agent>
    </dc:creator>
   </cc:Work>
  </rdf:RDF>
 </metadata>
 <defs>
  <style type="text/css">*{stroke-linejoin: round; stroke-linecap: butt}</style>
 </defs>
 <g id="figure_1">
  <g id="patch_1">
   <path d="M 0 206.513325 
L 226.997578 206.513325 
L 226.997578 0 
L 0 0 
z
" style="fill: #ffffff"/>
  </g>
  <g id="axes_1">
   <g id="patch_2">
    <path d="M 35.837578 148.477887 
L 225.557578 148.477887 
L 225.557578 9.877887 
L 35.837578 9.877887 
z
" style="fill: #ffffff"/>
   </g>
   <g id="matplotlib.axis_1">
    <g id="xtick_1">
     <g id="line2d_1">
      <path d="M 38.712124 148.477887 
L 38.712124 9.877887 
" clip-path="url(#p0b29a9535a)" style="fill: none; stroke: #dddddd; stroke-opacity: 0.5; stroke-width: 0.6; stroke-linecap: square"/>
     </g>
     <g id="line2d_2">
      <defs>
       <path id="mac8a18c9ea" d="M 0 0 
L 0 3.5 
" style="stroke: #444444; stroke-width: 0.8"/>
      </defs>
      <g>
       <use xlink:href="#mac8a18c9ea" x="38.712124" y="148.477887" style="fill: #444444; stroke: #444444; stroke-width: 0.8"/>
      </g>
     </g>
     <g id="text_1">
      <text style="font-weight: 700; font-size: 7.5px; font-family: 'DejaVu Sans', 'Bitstream Vera Sans', 'Computer Modern Sans Serif', 'Lucida Grande', 'Verdana', 'Geneva', 'Lucid', 'Arial', 'Helvetica', 'Avant Garde', sans-serif; text-anchor: middle; fill: #444444" x="38.712124" y="161.176716" transform="rotate(-0 38.712124 161.176716)">0</text>
     </g>
    </g>
    <g id="xtick_2">
     <g id="line2d_3">
      <path d="M 67.457578 148.477887 
L 67.457578 9.877887 
" clip-path="url(#p0b29a9535a)" style="fill: none; stroke: #dddddd; stroke-opacity: 0.5; stroke-width: 0.6; stroke-linecap: square"/>
     </g>
     <g id="line2d_4">
      <g>
       <use xlink:href="#mac8a18c9ea" x="67.457578" y="148.477887" style="fill: #444444; stroke: #444444; stroke-width: 0.8"/>
      </g>
     </g>
     <g id="text_2">
      <text style="font-weight: 700; font-size: 7.5px; font-family: 'DejaVu Sans', 'Bitstream Vera Sans', 'Computer Modern Sans Serif', 'Lucida Grande', 'Verdana', 'Geneva', 'Lucid', 'Arial', 'Helvetica', 'Avant Garde', sans-serif; text-anchor: middle; fill: #444444" x="67.457578" y="161.176716" transform="rotate(-0 67.457578 161.176716)">5</text>
     </g>
    </g>
    <g id="xtick_3">
     <g id="line2d_5">
      <path d="M 96.203033 148.477887 
L 96.203033 9.877887 
" clip-path="url(#p0b29a9535a)" style="fill: none; stroke: #dddddd; stroke-opacity: 0.5; stroke-width: 0.6; stroke-linecap: square"/>
     </g>
     <g id="line2d_6">
      <g>
       <use xlink:href="#mac8a18c9ea" x="96.203033" y="148.477887" style="fill: #444444; stroke: #444444; stroke-width: 0.8"/>
      </g>
     </g>
     <g id="text_3">
      <text style="font-weight: 700; font-size: 7.5px; font-family: 'DejaVu Sans', 'Bitstream Vera Sans', 'Computer Modern Sans Serif', 'Lucida Grande', 'Verdana', 'Geneva', 'Lucid', 'Arial', 'Helvetica', 'Avant Garde', sans-serif; text-anchor: middle; fill: #444444" x="96.203033" y="161.176716" transform="rotate(-0 96.203033 161.176716)">10</text>
     </g>
    </g>
    <g id="xtick_4">
     <g id="line2d_7">
      <path d="M 124.948487 148.477887 
L 124.948487 9.877887 
" clip-path="url(#p0b29a9535a)" style="fill: none; stroke: #dddddd; stroke-opacity: 0.5; stroke-width: 0.6; stroke-linecap: square"/>
     </g>
     <g id="line2d_8">
      <g>
       <use xlink:href="#mac8a18c9ea" x="124.948487" y="148.477887" style="fill: #444444; stroke: #444444; stroke-width: 0.8"/>
      </g>
     </g>
     <g id="text_4">
      <text style="font-weight: 700; font-size: 7.5px; font-family: 'DejaVu Sans', 'Bitstream Vera Sans', 'Computer Modern Sans Serif', 'Lucida Grande', 'Verdana', 'Geneva', 'Lucid', 'Arial', 'Helvetica', 'Avant Garde', sans-serif; text-anchor: middle; fill: #444444" x="124.948487" y="161.176716" transform="rotate(-0 124.948487 161.176716)">15</text>
     </g>
    </g>
    <g id="xtick_5">
     <g id="line2d_9">
      <path d="M 153.693942 148.477887 
L 153.693942 9.877887 
" clip-path="url(#p0b29a9535a)" style="fill: none; stroke: #dddddd; stroke-opacity: 0.5; stroke-width: 0.6; stroke-linecap: square"/>
     </g>
     <g id="line2d_10">
      <g>
       <use xlink:href="#mac8a18c9ea" x="153.693942" y="148.477887" style="fill: #444444; stroke: #444444; stroke-width: 0.8"/>
      </g>
     </g>
     <g id="text_5">
      <text style="font-weight: 700; font-size: 7.5px; font-family: 'DejaVu Sans', 'Bitstream Vera Sans', 'Computer Modern Sans Serif', 'Lucida Grande', 'Verdana', 'Geneva', 'Lucid', 'Arial', 'Helvetica', 'Avant Garde', sans-serif; text-anchor: middle; fill: #444444" x="153.693942" y="161.176716" transform="rotate(-0 153.693942 161.176716)">20</text>
     </g>
    </g>
    <g id="xtick_6">
     <g id="line2d_11">
      <path d="M 182.439396 148.477887 
L 182.439396 9.877887 
" clip-path="url(#p0b29a9535a)" style="fill: none; stroke: #dddddd; stroke-opacity: 0.5; stroke-width: 0.6; stroke-linecap: square"/>
     </g>
     <g id="line2d_12">
      <g>
       <use xlink:href="#mac8a18c9ea" x="182.439396" y="148.477887" style="fill: #444444; stroke: #444444; stroke-width: 0.8"/>
      </g>
     </g>
     <g id="text_6">
      <text style="font-weight: 700; font-size: 7.5px; font-family: 'DejaVu Sans', 'Bitstream Vera Sans', 'Computer Modern Sans Serif', 'Lucida Grande', 'Verdana', 'Geneva', 'Lucid', 'Arial', 'Helvetica', 'Avant Garde', sans-serif; text-anchor: middle; fill: #444444" x="182.439396" y="161.176716" transform="rotate(-0 182.439396 161.176716)">25</text>
     </g>
    </g>
    <g id="xtick_7">
     <g id="line2d_13">
      <path d="M 211.184851 148.477887 
L 211.184851 9.877887 
" clip-path="url(#p0b29a9535a)" style="fill: none; stroke: #dddddd; stroke-opacity: 0.5; stroke-width: 0.6; stroke-linecap: square"/>
     </g>
     <g id="line2d_14">
      <g>
       <use xlink:href="#mac8a18c9ea" x="211.184851" y="148.477887" style="fill: #444444; stroke: #444444; stroke-width: 0.8"/>
      </g>
     </g>
     <g id="text_7">
      <text style="font-weight: 700; font-size: 7.5px; font-family: 'DejaVu Sans', 'Bitstream Vera Sans', 'Computer Modern Sans Serif', 'Lucida Grande', 'Verdana', 'Geneva', 'Lucid', 'Arial', 'Helvetica', 'Avant Garde', sans-serif; text-anchor: middle; fill: #444444" x="211.184851" y="161.176716" transform="rotate(-0 211.184851 161.176716)">30</text>
     </g>
    </g>
    <g id="text_8">
     <text style="font-weight: 700; font-size: 8px; font-family: 'DejaVu Sans', 'Bitstream Vera Sans', 'Computer Modern Sans Serif', 'Lucida Grande', 'Verdana', 'Geneva', 'Lucid', 'Arial', 'Helvetica', 'Avant Garde', sans-serif; text-anchor: middle" x="130.697578" y="172.752731" transform="rotate(-0 130.697578 172.752731)">Day</text>
    </g>
   </g>
   <g id="matplotlib.axis_2">
    <g id="ytick_1">
     <g id="line2d_15">
      <path d="M 35.837578 148.477887 
L 225.557578 148.477887 
" clip-path="url(#p0b29a9535a)" style="fill: none; stroke: #dddddd; stroke-opacity: 0.5; stroke-width: 0.6; stroke-linecap: square"/>
     </g>
     <g id="line2d_16">
      <defs>
       <path id="mc4d588b40f" d="M 0 0 
L -3.5 0 
" style="stroke: #444444; stroke-width: 0.8"/>
      </defs>
      <g>
       <use xlink:href="#mc4d588b40f" x="35.837578" y="148.477887" style="fill: #444444; stroke: #444444; stroke-width: 0.8"/>
      </g>
     </g>
     <g id="text_9">
      <text style="font-weight: 700; font-size: 7.5px; font-family: 'DejaVu Sans', 'Bitstream Vera Sans', 'Computer Modern Sans Serif', 'Lucida Grande', 'Verdana', 'Geneva', 'Lucid', 'Arial', 'Helvetica', 'Avant Garde', sans-serif; text-anchor: end; fill: #444444" x="28.837578" y="151.327302" transform="rotate(-0 28.837578 151.327302)">30</text>
     </g>
    </g>
    <g id="ytick_2">
     <g id="line2d_17">
      <path d="M 35.837578 128.677887 
L 225.557578 128.677887 
" clip-path="url(#p0b29a9535a)" style="fill: none; stroke: #dddddd; stroke-opacity: 0.5; stroke-width: 0.6; stroke-linecap: square"/>
     </g>
     <g id="line2d_18">
      <g>
       <use xlink:href="#mc4d588b40f" x="35.837578" y="128.677887" style="fill: #444444; stroke: #444444; stroke-width: 0.8"/>
      </g>
     </g>
     <g id="text_10">
      <text style="font-weight: 700; font-size: 7.5px; font-family: 'DejaVu Sans', 'Bitstream Vera Sans', 'Computer Modern Sans Serif', 'Lucida Grande', 'Verdana', 'Geneva', 'Lucid', 'Arial', 'Helvetica', 'Avant Garde', sans-serif; text-anchor: end; fill: #444444" x="28.837578" y="131.527302" transform="rotate(-0 28.837578 131.527302)">40</text>
     </g>
    </g>
    <g id="ytick_3">
     <g id="line2d_19">
      <path d="M 35.837578 108.877887 
L 225.557578 108.877887 
" clip-path="url(#p0b29a9535a)" style="fill: none; stroke: #dddddd; stroke-opacity: 0.5; stroke-width: 0.6; stroke-linecap: square"/>
     </g>
     <g id="line2d_20">
      <g>
       <use xlink:href="#mc4d588b40f" x="35.837578" y="108.877887" style="fill: #444444; stroke: #444444; stroke-width: 0.8"/>
      </g>
     </g>
     <g id="text_11">
      <text style="font-weight: 700; font-size: 7.5px; font-family: 'DejaVu Sans', 'Bitstream Vera Sans', 'Computer Modern Sans Serif', 'Lucida Grande', 'Verdana', 'Geneva', 'Lucid', 'Arial', 'Helvetica', 'Avant Garde', sans-serif; text-anchor: end; fill: #444444" x="28.837578" y="111.727302" transform="rotate(-0 28.837578 111.727302)">50</text>
     </g>
    </g>
    <g id="ytick_4">
     <g id="line2d_21">
      <path d="M 35.837578 89.077887 
L 225.557578 89.077887 
" clip-path="url(#p0b29a9535a)" style="fill: none; stroke: #dddddd; stroke-opacity: 0.5; stroke-width: 0.6; stroke-linecap: square"/>
     </g>
     <g id="line2d_22">
      <g>
       <use xlink:href="#mc4d588b40f" x="35.837578" y="89.077887" style="fill: #444444; stroke: #444444; stroke-width: 0.8"/>
      </g>
     </g>
     <g id="text_12">
      <text style="font-weight: 700; font-size: 7.5px; font-family: 'DejaVu Sans', 'Bitstream Vera Sans', 'Computer Modern Sans Serif', 'Lucida Grande', 'Verdana', 'Geneva', 'Lucid', 'Arial', 'Helvetica', 'Avant Garde', sans-serif; text-anchor: end; fill: #444444" x="28.837578" y="91.927302" transform="rotate(-0 28.837578 91.927302)">60</text>
     </g>
    </g>
    <g id="ytick_5">
     <g id="line2d_23">
      <path d="M 35.837578 69.277887 
L 225.557578 69.277887 
" clip-path="url(#p0b29a9535a)" style="fill: none; stroke: #dddddd; stroke-opacity: 0.5; stroke-width: 0.6; stroke-linecap: square"/>
     </g>
     <g id="line2d_24">
      <g>
       <use xlink:href="#mc4d588b40f" x="35.837578" y="69.277887" style="fill: #444444; stroke: #444444; stroke-width: 0.8"/>
      </g>
     </g>
     <g id="text_13">
      <text style="font-weight: 700; font-size: 7.5px; font-family: 'DejaVu Sans', 'Bitstream Vera Sans', 'Computer Modern Sans Serif', 'Lucida Grande', 'Verdana', 'Geneva', 'Lucid', 'Arial', 'Helvetica', 'Avant Garde', sans-serif; text-anchor: end; fill: #444444" x="28.837578" y="72.127302" transform="rotate(-0 28.837578 72.127302)">70</text>
     </g>
    </g>
    <g id="ytick_6">
     <g id="line2d_25">
      <path d="M 35.837578 49.477887 
L 225.557578 49.477887 
" clip-path="url(#p0b29a9535a)" style="fill: none; stroke: #dddddd; stroke-opacity: 0.5; stroke-width: 0.6; stroke-linecap: square"/>
     </g>
     <g id="line2d_26">
      <g>
       <use xlink:href="#mc4d588b40f" x="35.837578" y="49.477887" style="fill: #444444; stroke: #444444; stroke-width: 0.8"/>
      </g>
     </g>
     <g id="text_14">
      <text style="font-weight: 700; font-size: 7.5px; font-family: 'DejaVu Sans', 'Bitstream Vera Sans', 'Computer Modern Sans Serif', 'Lucida Grande', 'Verdana', 'Geneva', 'Lucid', 'Arial', 'Helvetica', 'Avant Garde', sans-serif; text-anchor: end; fill: #444444" x="28.837578" y="52.327302" transform="rotate(-0 28.837578 52.327302)">80</text>
     </g>
    </g>
    <g id="ytick_7">
     <g id="line2d_27">
      <path d="M 35.837578 29.677887 
L 225.557578 29.677887 
" clip-path="url(#p0b29a9535a)" style="fill: none; stroke: #dddddd; stroke-opacity: 0.5; stroke-width: 0.6; stroke-linecap: square"/>
     </g>
     <g id="line2d_28">
      <g>
       <use xlink:href="#mc4d588b40f" x="35.837578" y="29.677887" style="fill: #444444; stroke: #444444; stroke-width: 0.8"/>
      </g>
     </g>
     <g id="text_15">
      <text style="font-weight: 700; font-size: 7.5px; font-family: 'DejaVu Sans', 'Bitstream Vera Sans', 'Computer Modern Sans Serif', 'Lucida Grande', 'Verdana', 'Geneva', 'Lucid', 'Arial', 'Helvetica', 'Avant Garde', sans-serif; text-anchor: end; fill: #444444" x="28.837578" y="32.527302" transform="rotate(-0 28.837578 32.527302)">90</text>
     </g>
    </g>
    <g id="ytick_8">
     <g id="line2d_29">
      <path d="M 35.837578 9.877887 
L 225.557578 9.877887 
" clip-path="url(#p0b29a9535a)" style="fill: none; stroke: #dddddd; stroke-opacity: 0.5; stroke-width: 0.6; stroke-linecap: square"/>
     </g>
     <g id="line2d_30">
      <g>
       <use xlink:href="#mc4d588b40f" x="35.837578" y="9.877887" style="fill: #444444; stroke: #444444; stroke-width: 0.8"/>
      </g>
     </g>
     <g id="text_16">
      <text style="font-weight: 700; font-size: 7.5px; font-family: 'DejaVu Sans', 'Bitstream Vera Sans', 'Computer Modern Sans Serif', 'Lucida Grande', 'Verdana', 'Geneva', 'Lucid', 'Arial', 'Helvetica', 'Avant Garde', sans-serif; text-anchor: end; fill: #444444" x="28.837578" y="12.727302" transform="rotate(-0 28.837578 12.727302)">100</text>
     </g>
    </g>
    <g id="text_17">
     <text style="font-weight: 700; font-size: 8px; font-family: 'DejaVu Sans', 'Bitstream Vera Sans', 'Computer Modern Sans Serif', 'Lucida Grande', 'Verdana', 'Geneva', 'Lucid', 'Arial', 'Helvetica', 'Avant Garde', sans-serif; text-anchor: middle" x="7.45625" y="79.177887" transform="rotate(-90 7.45625 79.177887)">Accuracy</text>
    </g>
   </g>
   <g id="line2d_31">
    <path d="M 119.199396 148.477887 
L 119.199396 9.877887 
" clip-path="url(#p0b29a9535a)" style="fill: none; stroke-dasharray: 0.9,1.485; stroke-dashoffset: 0; stroke: #141413; stroke-opacity: 0.75; stroke-width: 0.9"/>
   </g>
   <g id="line2d_32">
    <path d="M 176.690305 148.477887 
L 176.690305 9.877887 
" clip-path="url(#p0b29a9535a)" style="fill: none; stroke-dasharray: 0.9,1.485; stroke-dashoffset: 0; stroke: #141413; stroke-opacity: 0.75; stroke-width: 0.9"/>
   </g>
   <g id="FillBetweenPolyCollection_1">
    <defs>
     <path id="m83c3a559e4" d="M 159.443033 -159.510438 
L 159.443033 -151.260438 
L 165.192124 -169.221713 
L 170.941214 -159.510438 
L 176.690305 -120.04341 
L 182.439396 -120.04341 
L 188.188487 -118.829304 
L 193.937578 -128.875922 
L 199.686669 -121.424536 
L 205.43576 -144.471713 
L 211.184851 -66.529562 
L 216.933942 -135.150616 
L 216.933942 -178.370259 
L 216.933942 -178.370259 
L 211.184851 -142.491313 
L 205.43576 -166.299162 
L 199.686669 -155.077108 
L 193.937578 -153.844953 
L 188.188487 -141.524904 
L 182.439396 -165.977465 
L 176.690305 -165.977465 
L 170.941214 -167.760437 
L 165.192124 -191.049162 
L 159.443033 -159.510438 
z
"/>
    </defs>
    <g clip-path="url(#p0b29a9535a)">
     <use xlink:href="#m83c3a559e4" x="0" y="206.513325" style="fill: #b178d7; fill-opacity: 0.13"/>
    </g>
   </g>
   <g id="FillBetweenPolyCollection_2">
    <defs>
     <path id="m6a8285c2d1" d="M 119.199396 -145.508337 
L 119.199396 -115.762538 
L 124.948487 -126.510438 
L 130.697578 -143.010437 
L 136.446669 -152.365728 
L 142.19576 -152.721713 
L 147.944851 -159.510438 
L 153.693942 -152.721713 
L 159.443033 -152.365728 
L 165.192124 -165.096713 
L 170.941214 -159.510438 
L 176.690305 -95.518773 
L 182.439396 -115.857313 
L 188.188487 -101.511102 
L 193.937578 -116.849917 
L 199.686669 -121.415904 
L 205.43576 -134.760437 
L 211.184851 -83.405079 
L 216.933942 -108.807989 
L 216.933942 -152.462886 
L 216.933942 -152.462886 
L 211.184851 -131.115796 
L 205.43576 -143.010437 
L 199.686669 -138.58574 
L 193.937578 -148.820958 
L 188.188487 -109.343106 
L 182.439396 -153.663562 
L 176.690305 -121.752102 
L 170.941214 -167.760437 
L 165.192124 -186.924162 
L 159.443033 -166.655147 
L 153.693942 -174.549162 
L 147.944851 -159.510438 
L 142.19576 -174.549162 
L 136.446669 -166.655147 
L 130.697578 -159.510438 
L 124.948487 -159.510438 
L 119.199396 -145.508337 
z
"/>
    </defs>
    <g clip-path="url(#p0b29a9535a)">
     <use xlink:href="#m6a8285c2d1" x="0" y="206.513325" style="fill: #712d9e; fill-opacity: 0.13"/>
    </g>
   </g>
   <g id="FillBetweenPolyCollection_3">
    <defs>
     <path id="m079d76a6c8" d="M 44.461214 -110.923733 
L 44.461214 -102.025714 
L 50.210305 -102.279562 
L 55.959396 -55.945152 
L 61.708487 -116.905967 
L 67.457578 -129.718771 
L 73.206669 -147.135438 
L 78.95576 -123.364155 
L 84.704851 -127.456379 
L 90.453942 -113.836514 
L 96.203033 -113.794042 
L 101.952124 -108.579385 
L 107.701214 -159.510438 
L 113.450305 -140.581 
L 119.199396 -103.387538 
L 124.948487 -96.154979 
L 130.697578 -118.260438 
L 136.446669 -126.510438 
L 142.19576 -121.182989 
L 147.944851 -139.990728 
L 153.693942 -126.510438 
L 159.443033 -120.471018 
L 165.192124 -132.096713 
L 170.941214 -139.990728 
L 176.690305 -132.552804 
L 182.439396 -120.04341 
L 188.188487 -93.982877 
L 193.937578 -133.131075 
L 199.686669 -114.824582 
L 205.43576 -144.471713 
L 211.184851 -117.057989 
L 216.933942 -126.510438 
L 216.933942 -184.260438 
L 216.933942 -184.260438 
L 211.184851 -160.712886 
L 205.43576 -166.299162 
L 199.686669 -136.927062 
L 193.937578 -166.0898 
L 188.188487 -153.537998 
L 182.439396 -165.977465 
L 176.690305 -142.468071 
L 170.941214 -154.280147 
L 165.192124 -153.924162 
L 159.443033 -149.049857 
L 153.693942 -134.760437 
L 147.944851 -154.280147 
L 142.19576 -164.837886 
L 136.446669 -134.760437 
L 130.697578 -134.760437 
L 124.948487 -132.115896 
L 119.199396 -133.133337 
L 113.450305 -154.32449 
L 107.701214 -165.403295 
L 101.952124 -153.608157 
L 96.203033 -163.976833 
L 90.453942 -145.184361 
L 84.704851 -170.481162 
L 78.95576 -157.15672 
L 73.206669 -153.735438 
L 67.457578 -171.885438 
L 61.708487 -178.281575 
L 55.959396 -172.325723 
L 50.210305 -178.241313 
L 44.461214 -110.923733 
z
"/>
    </defs>
    <g clip-path="url(#p0b29a9535a)">
     <use xlink:href="#m079d76a6c8" x="0" y="206.513325" style="fill: #2d123f; fill-opacity: 0.13"/>
    </g>
   </g>
   <g id="patch_3">
    <path d="M 35.837578 148.477887 
L 35.837578 9.877887 
" style="fill: none; stroke: #444444; stroke-width: 0.8; stroke-linejoin: miter; stroke-linecap: square"/>
   </g>
   <g id="patch_4">
    <path d="M 35.837578 148.477887 
L 225.557578 148.477887 
" style="fill: none; stroke: #444444; stroke-width: 0.8; stroke-linejoin: miter; stroke-linecap: square"/>
   </g>
   <g id="text_18">
    <text style="font-weight: 700; font-size: 7px; font-family: 'DejaVu Sans', 'Bitstream Vera Sans', 'Computer Modern Sans Serif', 'Lucida Grande', 'Verdana', 'Geneva', 'Lucid', 'Arial', 'Helvetica', 'Avant Garde', sans-serif; text-anchor: middle; fill: #141413" x="119.199396" y="6.758906" transform="rotate(-0 119.199396 6.758906)">sick</text>
   </g>
   <g id="text_19">
    <text style="font-weight: 700; font-size: 7px; font-family: 'DejaVu Sans', 'Bitstream Vera Sans', 'Computer Modern Sans Serif', 'Lucida Grande', 'Verdana', 'Geneva', 'Lucid', 'Arial', 'Helvetica', 'Avant Garde', sans-serif; text-anchor: middle; fill: #141413" x="176.690305" y="6.758906" transform="rotate(-0 176.690305 6.758906)">back to normal</text>
   </g>
   <g id="line2d_33">
    <path d="M 159.443033 38.752887 
L 165.192124 40.127887 
L 170.941214 34.627887 
L 176.690305 63.502887 
L 182.439396 67.780665 
L 188.188487 68.330665 
L 193.937578 69.917204 
L 199.686669 61.514426 
L 205.43576 73.797759 
L 211.184851 67.627887 
L 216.933942 75.877887 
" clip-path="url(#p0b29a9535a)" style="fill: none; stroke: #b178d7; stroke-width: 1.6; stroke-linecap: square"/>
   </g>
   <g id="line2d_34">
    <path d="M 119.199396 69.690387 
L 124.948487 64.877887 
L 130.697578 55.252887 
L 136.446669 48.377887 
L 142.19576 45.627887 
L 147.944851 44.252887 
L 153.693942 45.627887 
L 159.443033 40.127887 
L 165.192124 40.127887 
L 170.941214 36.690387 
L 176.690305 84.815387 
L 182.439396 90.238999 
L 188.188487 82.172332 
L 193.937578 83.75887 
L 199.686669 72.606093 
L 205.43576 81.131093 
L 211.184851 80.919554 
L 216.933942 87.565387 
" clip-path="url(#p0b29a9535a)" style="fill: none; stroke: #712d9e; stroke-width: 1.6; stroke-linecap: square"/>
   </g>
   <g id="line2d_35">
    <path d="M 44.461214 83.145745 
L 50.210305 86.223126 
L 55.959396 72.516776 
L 61.708487 69.002887 
L 67.457578 56.902887 
L 73.206669 59.347332 
L 78.95576 59.958443 
L 84.704851 66.933443 
L 90.453942 67.391776 
L 96.203033 73.35011 
L 101.952124 62.367967 
L 107.701214 59.512198 
L 113.450305 51.558519 
L 119.199396 90.315387 
L 124.948487 86.877887 
L 130.697578 82.752887 
L 136.446669 73.127887 
L 142.19576 66.252887 
L 147.944851 66.252887 
L 153.693942 69.002887 
L 159.443033 70.377887 
L 165.192124 64.877887 
L 170.941214 61.440387 
L 176.690305 66.252887 
L 182.439396 71.752887 
L 188.188487 67.719554 
L 193.937578 73.431093 
L 199.686669 62.889426 
L 205.43576 66.464426 
L 211.184851 56.627887 
L 216.933942 59.377887 
" clip-path="url(#p0b29a9535a)" style="fill: none; stroke: #2d123f; stroke-width: 1.6; stroke-linecap: square"/>
   </g>
   <g id="legend_1">
    <g id="line2d_36">
     <path d="M 60.686094 177.708794 
L 65.936094 177.708794 
L 71.186094 177.708794 
" style="fill: none; stroke: #2d123f; stroke-width: 1.6; stroke-linecap: square"/>
    </g>
    <g id="text_20">
     <text style="font-weight: 700; font-size: 7px; font-family: 'DejaVu Sans', 'Bitstream Vera Sans', 'Computer Modern Sans Serif', 'Lucida Grande', 'Verdana', 'Geneva', 'Lucid', 'Arial', 'Helvetica', 'Avant Garde', sans-serif; text-anchor: start" x="76.786094" y="180.158794" transform="rotate(-0 76.786094 180.158794)">never told</text>
    </g>
    <g id="line2d_37">
     <path d="M 60.686094 187.983481 
L 65.936094 187.983481 
L 71.186094 187.983481 
" style="fill: none; stroke: #712d9e; stroke-width: 1.6; stroke-linecap: square"/>
    </g>
    <g id="text_21">
     <text style="font-weight: 700; font-size: 7px; font-family: 'DejaVu Sans', 'Bitstream Vera Sans', 'Computer Modern Sans Serif', 'Lucida Grande', 'Verdana', 'Geneva', 'Lucid', 'Arial', 'Helvetica', 'Avant Garde', sans-serif; text-anchor: start" x="76.786094" y="190.433481" transform="rotate(-0 76.786094 190.433481)">told on the first sick day</text>
    </g>
    <g id="line2d_38">
     <path d="M 60.686094 198.312856 
L 65.936094 198.312856 
L 71.186094 198.312856 
" style="fill: none; stroke: #b178d7; stroke-width: 1.6; stroke-linecap: square"/>
    </g>
    <g id="text_22">
     <text style="font-weight: 700; font-size: 7px; font-family: 'DejaVu Sans', 'Bitstream Vera Sans', 'Computer Modern Sans Serif', 'Lucida Grande', 'Verdana', 'Geneva', 'Lucid', 'Arial', 'Helvetica', 'Avant Garde', sans-serif; text-anchor: start" x="76.786094" y="200.762856" transform="rotate(-0 76.786094 200.762856)">told again on the first day back</text>
    </g>
   </g>
  </g>
 </g>
 <defs>
  <clipPath id="p0b29a9535a">
   <rect x="35.837578" y="9.877887" width="189.72" height="138.6"/>
  </clipPath>
 </defs>
</svg>
