<?xml version="1.0" encoding="utf-8" standalone="no"?>
<!DOCTYPE svg PUBLIC "-//W3C//DTD SVG 1.1//EN"
  "http://www.w3.org/Graphics/SVG/1.1/DTD/svg11.dtd">
<svg xmlns:xlink="http://www.w3.org/1999/xlink" width="282.539844pt" height="195.851513pt" viewBox="0 0 282.539844 195.851513" xmlns="http://www.w3.org/2000/svg" version="1.1">
 <metadata>
  <rdf:RDF xmlns:dc="http://purl.org/dc/elements/1.1/" xmlns:cc="http://creativecommons.org/ns#" xmlns:rdf="http://www.w3.org/1999/02/22-rdf-syntax-ns#">
   <cc:Work>
    <dc:type rdf:resource="http://purl.org/dc/dcmitype/StillImage"/>
    <dc:date>2026-09-23T02:07:47.431148</dc:date>
    <dc:format>image/svg+xml</dc:format>
    <dc:creator>
     <cc:Agent>
      <dc:title>Matplotlib v3.10.8, https://matplotlib.org/</dc:title>
     </cc:Agent>
    </dc:creator>
   </cc:Work>
  </rdf:RDF>
 </metadata>
 <defs>
  <style type="text/css">*{stroke-linejoin: round; stroke-linecap: butt}</style>
 </defs>
 <g id="figure_1">
  <g id="patch_1">
   <path d="M 0 195.851513 
L 282.539844 195.851513 
L 282.539844 0 
L 0 0 
z
" style="fill: #ffffff"/>
  </g>
  <g id="axes_1">
   <g id="patch_2">
    <path d="M 46.409922 148.090763 
L 236.129922 148.090763 
L 236.129922 9.490762 
L 46.409922 9.490762 
z
" style="fill: #ffffff"/>
   </g>
   <g id="matplotlib.axis_1">
    <g id="xtick_1">
     <g id="line2d_1">
      <path d="M 49.284467 148.090763 
L 49.284467 9.490762 
" clip-path="url(#p4b8ade2e6d)" style="fill: none; stroke: #dddddd; stroke-opacity: 0.5; stroke-width: 0.6; stroke-linecap: square"/>
     </g>
     <g id="line2d_2">
      <defs>
       <path id="m7f86b1f17a" d="M 0 0 
L 0 3.5 
" style="stroke: #444444; stroke-width: 0.8"/>
      </defs>
      <g>
       <use xlink:href="#m7f86b1f17a" x="49.284467" y="148.090763" style="fill: #444444; stroke: #444444; stroke-width: 0.8"/>
      </g>
     </g>
     <g id="text_1">
      <text style="font-weight: 700; font-size: 7.5px; font-family: 'DejaVu Sans', 'Bitstream Vera Sans', 'Computer Modern Sans Serif', 'Lucida Grande', 'Verdana', 'Geneva', 'Lucid', 'Arial', 'Helvetica', 'Avant Garde', sans-serif; text-anchor: middle; fill: #444444" x="49.284467" y="160.789591" transform="rotate(-0 49.284467 160.789591)">0</text>
     </g>
    </g>
    <g id="xtick_2">
     <g id="line2d_3">
      <path d="M 78.029922 148.090763 
L 78.029922 9.490762 
" clip-path="url(#p4b8ade2e6d)" style="fill: none; stroke: #dddddd; stroke-opacity: 0.5; stroke-width: 0.6; stroke-linecap: square"/>
     </g>
     <g id="line2d_4">
      <g>
       <use xlink:href="#m7f86b1f17a" x="78.029922" y="148.090763" style="fill: #444444; stroke: #444444; stroke-width: 0.8"/>
      </g>
     </g>
     <g id="text_2">
      <text style="font-weight: 700; font-size: 7.5px; font-family: 'DejaVu Sans', 'Bitstream Vera Sans', 'Computer Modern Sans Serif', 'Lucida Grande', 'Verdana', 'Geneva', 'Lucid', 'Arial', 'Helvetica', 'Avant Garde', sans-serif; text-anchor: middle; fill: #444444" x="78.029922" y="160.789591" transform="rotate(-0 78.029922 160.789591)">5</text>
     </g>
    </g>
    <g id="xtick_3">
     <g id="line2d_5">
      <path d="M 106.775376 148.090763 
L 106.775376 9.490762 
" clip-path="url(#p4b8ade2e6d)" style="fill: none; stroke: #dddddd; stroke-opacity: 0.5; stroke-width: 0.6; stroke-linecap: square"/>
     </g>
     <g id="line2d_6">
      <g>
       <use xlink:href="#m7f86b1f17a" x="106.775376" y="148.090763" style="fill: #444444; stroke: #444444; stroke-width: 0.8"/>
      </g>
     </g>
     <g id="text_3">
      <text style="font-weight: 700; font-size: 7.5px; font-family: 'DejaVu Sans', 'Bitstream Vera Sans', 'Computer Modern Sans Serif', 'Lucida Grande', 'Verdana', 'Geneva', 'Lucid', 'Arial', 'Helvetica', 'Avant Garde', sans-serif; text-anchor: middle; fill: #444444" x="106.775376" y="160.789591" transform="rotate(-0 106.775376 160.789591)">10</text>
     </g>
    </g>
    <g id="xtick_4">
     <g id="line2d_7">
      <path d="M 135.520831 148.090763 
L 135.520831 9.490762 
" clip-path="url(#p4b8ade2e6d)" style="fill: none; stroke: #dddddd; stroke-opacity: 0.5; stroke-width: 0.6; stroke-linecap: square"/>
     </g>
     <g id="line2d_8">
      <g>
       <use xlink:href="#m7f86b1f17a" x="135.520831" y="148.090763" style="fill: #444444; stroke: #444444; stroke-width: 0.8"/>
      </g>
     </g>
     <g id="text_4">
      <text style="font-weight: 700; font-size: 7.5px; font-family: 'DejaVu Sans', 'Bitstream Vera Sans', 'Computer Modern Sans Serif', 'Lucida Grande', 'Verdana', 'Geneva', 'Lucid', 'Arial', 'Helvetica', 'Avant Garde', sans-serif; text-anchor: middle; fill: #444444" x="135.520831" y="160.789591" transform="rotate(-0 135.520831 160.789591)">15</text>
     </g>
    </g>
    <g id="xtick_5">
     <g id="line2d_9">
      <path d="M 164.266286 148.090763 
L 164.266286 9.490762 
" clip-path="url(#p4b8ade2e6d)" style="fill: none; stroke: #dddddd; stroke-opacity: 0.5; stroke-width: 0.6; stroke-linecap: square"/>
     </g>
     <g id="line2d_10">
      <g>
       <use xlink:href="#m7f86b1f17a" x="164.266286" y="148.090763" style="fill: #444444; stroke: #444444; stroke-width: 0.8"/>
      </g>
     </g>
     <g id="text_5">
      <text style="font-weight: 700; font-size: 7.5px; font-family: 'DejaVu Sans', 'Bitstream Vera Sans', 'Computer Modern Sans Serif', 'Lucida Grande', 'Verdana', 'Geneva', 'Lucid', 'Arial', 'Helvetica', 'Avant Garde', sans-serif; text-anchor: middle; fill: #444444" x="164.266286" y="160.789591" transform="rotate(-0 164.266286 160.789591)">20</text>
     </g>
    </g>
    <g id="xtick_6">
     <g id="line2d_11">
      <path d="M 193.01174 148.090763 
L 193.01174 9.490762 
" clip-path="url(#p4b8ade2e6d)" style="fill: none; stroke: #dddddd; stroke-opacity: 0.5; stroke-width: 0.6; stroke-linecap: square"/>
     </g>
     <g id="line2d_12">
      <g>
       <use xlink:href="#m7f86b1f17a" x="193.01174" y="148.090763" style="fill: #444444; stroke: #444444; stroke-width: 0.8"/>
      </g>
     </g>
     <g id="text_6">
      <text style="font-weight: 700; font-size: 7.5px; font-family: 'DejaVu Sans', 'Bitstream Vera Sans', 'Computer Modern Sans Serif', 'Lucida Grande', 'Verdana', 'Geneva', 'Lucid', 'Arial', 'Helvetica', 'Avant Garde', sans-serif; text-anchor: middle; fill: #444444" x="193.01174" y="160.789591" transform="rotate(-0 193.01174 160.789591)">25</text>
     </g>
    </g>
    <g id="xtick_7">
     <g id="line2d_13">
      <path d="M 221.757195 148.090763 
L 221.757195 9.490762 
" clip-path="url(#p4b8ade2e6d)" style="fill: none; stroke: #dddddd; stroke-opacity: 0.5; stroke-width: 0.6; stroke-linecap: square"/>
     </g>
     <g id="line2d_14">
      <g>
       <use xlink:href="#m7f86b1f17a" x="221.757195" y="148.090763" style="fill: #444444; stroke: #444444; stroke-width: 0.8"/>
      </g>
     </g>
     <g id="text_7">
      <text style="font-weight: 700; font-size: 7.5px; font-family: 'DejaVu Sans', 'Bitstream Vera Sans', 'Computer Modern Sans Serif', 'Lucida Grande', 'Verdana', 'Geneva', 'Lucid', 'Arial', 'Helvetica', 'Avant Garde', sans-serif; text-anchor: middle; fill: #444444" x="221.757195" y="160.789591" transform="rotate(-0 221.757195 160.789591)">30</text>
     </g>
    </g>
    <g id="text_8">
     <text style="font-weight: 700; font-size: 8px; font-family: 'DejaVu Sans', 'Bitstream Vera Sans', 'Computer Modern Sans Serif', 'Lucida Grande', 'Verdana', 'Geneva', 'Lucid', 'Arial', 'Helvetica', 'Avant Garde', sans-serif; text-anchor: middle" x="141.269922" y="172.365606" transform="rotate(-0 141.269922 172.365606)">Day</text>
    </g>
   </g>
   <g id="matplotlib.axis_2">
    <g id="ytick_1">
     <g id="line2d_15">
      <path d="M 46.409922 148.090763 
L 236.129922 148.090763 
" clip-path="url(#p4b8ade2e6d)" style="fill: none; stroke: #dddddd; stroke-opacity: 0.5; stroke-width: 0.6; stroke-linecap: square"/>
     </g>
     <g id="line2d_16">
      <defs>
       <path id="m965b77f548" d="M 0 0 
L -3.5 0 
" style="stroke: #444444; stroke-width: 0.8"/>
      </defs>
      <g>
       <use xlink:href="#m965b77f548" x="46.409922" y="148.090763" style="fill: #444444; stroke: #444444; stroke-width: 0.8"/>
      </g>
     </g>
     <g id="text_9">
      <text style="font-weight: 700; font-size: 7.5px; font-family: 'DejaVu Sans', 'Bitstream Vera Sans', 'Computer Modern Sans Serif', 'Lucida Grande', 'Verdana', 'Geneva', 'Lucid', 'Arial', 'Helvetica', 'Avant Garde', sans-serif; text-anchor: end; fill: #444444" x="39.409922" y="150.940177" transform="rotate(-0 39.409922 150.940177)">30</text>
     </g>
    </g>
    <g id="ytick_2">
     <g id="line2d_17">
      <path d="M 46.409922 128.290763 
L 236.129922 128.290763 
" clip-path="url(#p4b8ade2e6d)" style="fill: none; stroke: #dddddd; stroke-opacity: 0.5; stroke-width: 0.6; stroke-linecap: square"/>
     </g>
     <g id="line2d_18">
      <g>
       <use xlink:href="#m965b77f548" x="46.409922" y="128.290763" style="fill: #444444; stroke: #444444; stroke-width: 0.8"/>
      </g>
     </g>
     <g id="text_10">
      <text style="font-weight: 700; font-size: 7.5px; font-family: 'DejaVu Sans', 'Bitstream Vera Sans', 'Computer Modern Sans Serif', 'Lucida Grande', 'Verdana', 'Geneva', 'Lucid', 'Arial', 'Helvetica', 'Avant Garde', sans-serif; text-anchor: end; fill: #444444" x="39.409922" y="131.140177" transform="rotate(-0 39.409922 131.140177)">40</text>
     </g>
    </g>
    <g id="ytick_3">
     <g id="line2d_19">
      <path d="M 46.409922 108.490763 
L 236.129922 108.490763 
" clip-path="url(#p4b8ade2e6d)" style="fill: none; stroke: #dddddd; stroke-opacity: 0.5; stroke-width: 0.6; stroke-linecap: square"/>
     </g>
     <g id="line2d_20">
      <g>
       <use xlink:href="#m965b77f548" x="46.409922" y="108.490763" style="fill: #444444; stroke: #444444; stroke-width: 0.8"/>
      </g>
     </g>
     <g id="text_11">
      <text style="font-weight: 700; font-size: 7.5px; font-family: 'DejaVu Sans', 'Bitstream Vera Sans', 'Computer Modern Sans Serif', 'Lucida Grande', 'Verdana', 'Geneva', 'Lucid', 'Arial', 'Helvetica', 'Avant Garde', sans-serif; text-anchor: end; fill: #444444" x="39.409922" y="111.340177" transform="rotate(-0 39.409922 111.340177)">50</text>
     </g>
    </g>
    <g id="ytick_4">
     <g id="line2d_21">
      <path d="M 46.409922 88.690763 
L 236.129922 88.690763 
" clip-path="url(#p4b8ade2e6d)" style="fill: none; stroke: #dddddd; stroke-opacity: 0.5; stroke-width: 0.6; stroke-linecap: square"/>
     </g>
     <g id="line2d_22">
      <g>
       <use xlink:href="#m965b77f548" x="46.409922" y="88.690763" style="fill: #444444; stroke: #444444; stroke-width: 0.8"/>
      </g>
     </g>
     <g id="text_12">
      <text style="font-weight: 700; font-size: 7.5px; font-family: 'DejaVu Sans', 'Bitstream Vera Sans', 'Computer Modern Sans Serif', 'Lucida Grande', 'Verdana', 'Geneva', 'Lucid', 'Arial', 'Helvetica', 'Avant Garde', sans-serif; text-anchor: end; fill: #444444" x="39.409922" y="91.540177" transform="rotate(-0 39.409922 91.540177)">60</text>
     </g>
    </g>
    <g id="ytick_5">
     <g id="line2d_23">
      <path d="M 46.409922 68.890762 
L 236.129922 68.890762 
" clip-path="url(#p4b8ade2e6d)" style="fill: none; stroke: #dddddd; stroke-opacity: 0.5; stroke-width: 0.6; stroke-linecap: square"/>
     </g>
     <g id="line2d_24">
      <g>
       <use xlink:href="#m965b77f548" x="46.409922" y="68.890762" style="fill: #444444; stroke: #444444; stroke-width: 0.8"/>
      </g>
     </g>
     <g id="text_13">
      <text style="font-weight: 700; font-size: 7.5px; font-family: 'DejaVu Sans', 'Bitstream Vera Sans', 'Computer Modern Sans Serif', 'Lucida Grande', 'Verdana', 'Geneva', 'Lucid', 'Arial', 'Helvetica', 'Avant Garde', sans-serif; text-anchor: end; fill: #444444" x="39.409922" y="71.740177" transform="rotate(-0 39.409922 71.740177)">70</text>
     </g>
    </g>
    <g id="ytick_6">
     <g id="line2d_25">
      <path d="M 46.409922 49.090763 
L 236.129922 49.090763 
" clip-path="url(#p4b8ade2e6d)" style="fill: none; stroke: #dddddd; stroke-opacity: 0.5; stroke-width: 0.6; stroke-linecap: square"/>
     </g>
     <g id="line2d_26">
      <g>
       <use xlink:href="#m965b77f548" x="46.409922" y="49.090763" style="fill: #444444; stroke: #444444; stroke-width: 0.8"/>
      </g>
     </g>
     <g id="text_14">
      <text style="font-weight: 700; font-size: 7.5px; font-family: 'DejaVu Sans', 'Bitstream Vera Sans', 'Computer Modern Sans Serif', 'Lucida Grande', 'Verdana', 'Geneva', 'Lucid', 'Arial', 'Helvetica', 'Avant Garde', sans-serif; text-anchor: end; fill: #444444" x="39.409922" y="51.940177" transform="rotate(-0 39.409922 51.940177)">80</text>
     </g>
    </g>
    <g id="ytick_7">
     <g id="line2d_27">
      <path d="M 46.409922 29.290762 
L 236.129922 29.290762 
" clip-path="url(#p4b8ade2e6d)" style="fill: none; stroke: #dddddd; stroke-opacity: 0.5; stroke-width: 0.6; stroke-linecap: square"/>
     </g>
     <g id="line2d_28">
      <g>
       <use xlink:href="#m965b77f548" x="46.409922" y="29.290762" style="fill: #444444; stroke: #444444; stroke-width: 0.8"/>
      </g>
     </g>
     <g id="text_15">
      <text style="font-weight: 700; font-size: 7.5px; font-family: 'DejaVu Sans', 'Bitstream Vera Sans', 'Computer Modern Sans Serif', 'Lucida Grande', 'Verdana', 'Geneva', 'Lucid', 'Arial', 'Helvetica', 'Avant Garde', sans-serif; text-anchor: end; fill: #444444" x="39.409922" y="32.140177" transform="rotate(-0 39.409922 32.140177)">90</text>
     </g>
    </g>
    <g id="ytick_8">
     <g id="line2d_29">
      <path d="M 46.409922 9.490762 
L 236.129922 9.490762 
" clip-path="url(#p4b8ade2e6d)" style="fill: none; stroke: #dddddd; stroke-opacity: 0.5; stroke-width: 0.6; stroke-linecap: square"/>
     </g>
     <g id="line2d_30">
      <g>
       <use xlink:href="#m965b77f548" x="46.409922" y="9.490762" style="fill: #444444; stroke: #444444; stroke-width: 0.8"/>
      </g>
     </g>
     <g id="text_16">
      <text style="font-weight: 700; font-size: 7.5px; font-family: 'DejaVu Sans', 'Bitstream Vera Sans', 'Computer Modern Sans Serif', 'Lucida Grande', 'Verdana', 'Geneva', 'Lucid', 'Arial', 'Helvetica', 'Avant Garde', sans-serif; text-anchor: end; fill: #444444" x="39.409922" y="12.340177" transform="rotate(-0 39.409922 12.340177)">100</text>
     </g>
    </g>
    <g id="text_17">
     <text style="font-weight: 700; font-size: 8px; font-family: 'DejaVu Sans', 'Bitstream Vera Sans', 'Computer Modern Sans Serif', 'Lucida Grande', 'Verdana', 'Geneva', 'Lucid', 'Arial', 'Helvetica', 'Avant Garde', sans-serif; text-anchor: middle" x="18.028594" y="78.790762" transform="rotate(-90 18.028594 78.790762)">Accuracy</text>
    </g>
   </g>
   <g id="line2d_31">
    <path d="M 129.77174 148.090763 
L 129.77174 9.490762 
" clip-path="url(#p4b8ade2e6d)" style="fill: none; stroke-dasharray: 0.9,1.485; stroke-dashoffset: 0; stroke: #141413; stroke-opacity: 0.75; stroke-width: 0.9"/>
   </g>
   <g id="line2d_32">
    <path d="M 187.262649 148.090763 
L 187.262649 9.490762 
" clip-path="url(#p4b8ade2e6d)" style="fill: none; stroke-dasharray: 0.9,1.485; stroke-dashoffset: 0; stroke: #141413; stroke-opacity: 0.75; stroke-width: 0.9"/>
   </g>
   <g id="FillBetweenPolyCollection_1">
    <defs>
     <path id="m0460b7ec81" d="M 55.033558 -74.102324 
L 55.033558 -54.199176 
L 60.782649 -102.34418 
L 66.53174 -101.12489 
L 72.280831 -135.141174 
L 78.029922 -101.922299 
L 83.779013 -114.463623 
L 89.528104 -129.18405 
L 95.277195 -124.987617 
L 101.026286 -136.377322 
L 106.775376 -135.349894 
L 112.524467 -152.6304 
L 118.273558 -135.14168 
L 124.022649 -153.468112 
L 129.77174 -57.764418 
L 135.520831 -80.341806 
L 141.269922 -93.519632 
L 147.019013 -105.091806 
L 152.768104 -103.801681 
L 158.517195 -109.761329 
L 164.266286 -116.564863 
L 170.015376 -109.612851 
L 175.764467 -122.136329 
L 181.513558 -126.397407 
L 187.262649 -135.654886 
L 193.01174 -153.462375 
L 198.760831 -116.807083 
L 204.509922 -129.120007 
L 210.259013 -136.398397 
L 216.008104 -145.29759 
L 221.757195 -134.318796 
L 227.506286 -131.61328 
L 227.506286 -153.065913 
L 227.506286 -153.065913 
L 221.757195 -155.035396 
L 216.008104 -155.606767 
L 210.259013 -157.054806 
L 204.509922 -155.852318 
L 198.760831 -138.764417 
L 193.01174 -169.484125 
L 187.262649 -155.877328 
L 181.513558 -154.749093 
L 175.764467 -149.110171 
L 170.015376 -139.358649 
L 164.266286 -147.256637 
L 158.517195 -136.735171 
L 152.768104 -128.551962 
L 147.019013 -131.504694 
L 141.269922 -123.276868 
L 135.520831 -106.754694 
L 129.77174 -77.357082 
L 124.022649 -169.035366 
L 118.273558 -149.328391 
L 112.524467 -165.444671 
L 106.775376 -160.646606 
L 101.026286 -153.541156 
L 95.277195 -144.508883 
L 89.528104 -141.62245 
L 83.779013 -146.544416 
L 78.029922 -132.136343 
L 72.280831 -154.805326 
L 66.53174 -125.123753 
L 60.782649 -129.465177 
L 55.033558 -74.102324 
z
"/>
    </defs>
    <g clip-path="url(#p4b8ade2e6d)">
     <use xlink:href="#m0460b7ec81" x="0" y="195.851513" style="fill: #2a78d6; fill-opacity: 0.13"/>
    </g>
   </g>
   <g id="FillBetweenPolyCollection_2">
    <defs>
     <path id="mb05e351aca" d="M 55.033558 -81.390295 
L 55.033558 -62.468348 
L 60.782649 -108.646218 
L 66.53174 -110.013695 
L 72.280831 -143.950315 
L 78.029922 -98.368449 
L 83.779013 -112.678402 
L 89.528104 -119.909496 
L 95.277195 -124.814818 
L 101.026286 -131.217503 
L 106.775376 -134.200142 
L 112.524467 -151.716581 
L 118.273558 -138.247302 
L 124.022649 -146.273232 
L 129.77174 -62.61075 
L 135.520831 -93.242648 
L 141.269922 -118.82509 
L 147.019013 -126.756605 
L 152.768104 -149.416138 
L 158.517195 -153.073263 
L 164.266286 -161.61075 
L 170.015376 -154.692989 
L 175.764467 -163.144072 
L 181.513558 -156.392992 
L 187.262649 -97.088742 
L 193.01174 -105.327889 
L 198.760831 -96.293356 
L 204.509922 -119.467853 
L 210.259013 -131.929677 
L 216.008104 -135.35252 
L 221.757195 -143.922755 
L 227.506286 -131.773105 
L 227.506286 -152.906088 
L 227.506286 -152.906088 
L 221.757195 -158.356438 
L 216.008104 -145.434694 
L 210.259013 -151.661384 
L 204.509922 -138.444471 
L 198.760831 -114.068144 
L 193.01174 -133.798611 
L 187.262649 -130.918473 
L 181.513558 -166.828508 
L 175.764467 -174.927428 
L 170.015376 -163.578511 
L 164.266286 -171.51075 
L 158.517195 -165.198237 
L 152.768104 -160.016076 
L 147.019013 -146.964895 
L 141.269922 -142.52141 
L 135.520831 -118.603852 
L 129.77174 -82.41075 
L 124.022649 -160.3014 
L 118.273558 -154.001341 
L 112.524467 -165.651348 
L 106.775376 -159.321358 
L 101.026286 -144.361689 
L 95.277195 -144.681682 
L 89.528104 -137.657718 
L 83.779013 -148.29579 
L 78.029922 -126.332337 
L 72.280831 -162.653328 
L 66.53174 -134.267091 
L 60.782649 -135.01314 
L 55.033558 -81.390295 
z
"/>
    </defs>
    <g clip-path="url(#p4b8ade2e6d)">
     <use xlink:href="#mb05e351aca" x="0" y="195.851513" style="fill: #eb6834; fill-opacity: 0.13"/>
    </g>
   </g>
   <g id="FillBetweenPolyCollection_3">
    <defs>
     <path id="mb8b48a79df" d="M 55.033558 -78.695483 
L 55.033558 -56.63816 
L 60.782649 -90.857219 
L 66.53174 -113.592403 
L 72.280831 -107.808105 
L 78.029922 -94.309606 
L 83.779013 -115.414662 
L 89.528104 -87.927637 
L 95.277195 -114.850397 
L 101.026286 -100.227138 
L 106.775376 -115.294141 
L 112.524467 -118.131971 
L 118.273558 -97.452762 
L 124.022649 -110.221194 
L 129.77174 -65.553923 
L 135.520831 -95.187944 
L 141.269922 -107.732785 
L 147.019013 -109.690997 
L 152.768104 -113.155949 
L 158.517195 -134.169528 
L 164.266286 -124.101419 
L 170.015376 -125.208418 
L 175.764467 -137.573939 
L 181.513558 -142.130954 
L 187.262649 -73.301054 
L 193.01174 -95.387457 
L 198.760831 -98.988608 
L 204.509922 -83.053023 
L 210.259013 -91.61577 
L 216.008104 -90.940806 
L 221.757195 -108.03714 
L 227.506286 -97.961962 
L 227.506286 -119.674648 
L 227.506286 -119.674648 
L 221.757195 -134.210459 
L 216.008104 -114.039266 
L 210.259013 -111.98996 
L 204.509922 -104.647268 
L 198.760831 -111.537892 
L 193.01174 -115.909043 
L 187.262649 -94.509731 
L 181.513558 -158.815546 
L 175.764467 -155.947561 
L 170.015376 -138.613082 
L 164.266286 -142.195081 
L 158.517195 -146.976972 
L 152.768104 -128.390551 
L 147.019013 -121.955503 
L 141.269922 -121.438715 
L 135.520831 -111.708556 
L 129.77174 -86.892577 
L 124.022649 -141.104427 
L 118.273558 -122.478738 
L 112.524467 -134.914364 
L 106.775376 -136.812359 
L 101.026286 -112.274032 
L 95.277195 -129.881817 
L 89.528104 -101.753863 
L 83.779013 -130.37953 
L 78.029922 -117.835466 
L 72.280831 -131.616966 
L 66.53174 -128.260525 
L 60.782649 -113.576424 
L 55.033558 -78.695483 
z
"/>
    </defs>
    <g clip-path="url(#p4b8ade2e6d)">
     <use xlink:href="#mb8b48a79df" x="0" y="195.851513" style="fill: #206e44; fill-opacity: 0.13"/>
    </g>
   </g>
   <g id="FillBetweenPolyCollection_4">
    <defs>
     <path id="m7f80801311" d="M 55.033558 -88.217022 
L 55.033558 -62.713049 
L 60.782649 -88.695024 
L 66.53174 -100.030088 
L 72.280831 -112.461032 
L 78.029922 -106.017357 
L 83.779013 -110.652124 
L 89.528104 -100.574033 
L 95.277195 -109.257786 
L 101.026286 -102.254824 
L 106.775376 -116.71744 
L 112.524467 -114.449869 
L 118.273558 -109.102104 
L 124.022649 -139.481106 
L 129.77174 -98.719247 
L 135.520831 -100.137944 
L 141.269922 -111.465328 
L 147.019013 -117.106726 
L 152.768104 -108.257961 
L 158.517195 -123.469247 
L 164.266286 -122.733418 
L 170.015376 -122.64863 
L 175.764467 -125.737015 
L 181.513558 -134.954416 
L 187.262649 -108.701597 
L 193.01174 -105.195196 
L 198.760831 -108.823325 
L 204.509922 -109.99008 
L 210.259013 -115.607176 
L 216.008104 -110.777336 
L 221.757195 -131.335683 
L 227.506286 -111.628176 
L 227.506286 -141.383708 
L 227.506286 -141.383708 
L 221.757195 -150.25807 
L 216.008104 -131.970592 
L 210.259013 -123.839983 
L 204.509922 -131.139387 
L 198.760831 -129.258175 
L 193.01174 -126.121304 
L 187.262649 -119.977046 
L 181.513558 -151.142084 
L 175.764467 -138.084485 
L 170.015376 -133.74787 
L 164.266286 -136.138082 
L 158.517195 -137.877253 
L 152.768104 -127.631396 
L 147.019013 -131.864774 
L 141.269922 -122.656172 
L 135.520831 -116.658556 
L 129.77174 -113.127253 
L 124.022649 -148.078636 
L 118.273558 -134.094396 
L 112.524467 -137.137455 
L 106.775376 -136.04906 
L 101.026286 -121.228214 
L 95.277195 -132.317285 
L 89.528104 -122.893182 
L 83.779013 -134.888222 
L 78.029922 -127.239857 
L 72.280831 -136.549754 
L 66.53174 -134.23284 
L 60.782649 -119.538618 
L 55.033558 -88.217022 
z
"/>
    </defs>
    <g clip-path="url(#p4b8ade2e6d)">
     <use xlink:href="#m7f80801311" x="0" y="195.851513" style="fill: #7a3aa7; fill-opacity: 0.13"/>
    </g>
   </g>
   <g id="patch_3">
    <path d="M 46.409922 148.090763 
L 46.409922 9.490762 
" style="fill: none; stroke: #444444; stroke-width: 0.8; stroke-linejoin: miter; stroke-linecap: square"/>
   </g>
   <g id="patch_4">
    <path d="M 46.409922 148.090763 
L 236.129922 148.090763 
" style="fill: none; stroke: #444444; stroke-width: 0.8; stroke-linejoin: miter; stroke-linecap: square"/>
   </g>
   <g id="text_18">
    <text style="font-weight: 700; font-size: 6.6px; font-family: 'DejaVu Sans', 'Bitstream Vera Sans', 'Computer Modern Sans Serif', 'Lucida Grande', 'Verdana', 'Geneva', 'Lucid', 'Arial', 'Helvetica', 'Avant Garde', sans-serif; text-anchor: middle; fill: #555555" x="89.528104" y="6.454969" transform="rotate(-0 89.528104 6.454969)">normal</text>
   </g>
   <g id="text_19">
    <text style="font-weight: 700; font-size: 6.6px; font-family: 'DejaVu Sans', 'Bitstream Vera Sans', 'Computer Modern Sans Serif', 'Lucida Grande', 'Verdana', 'Geneva', 'Lucid', 'Arial', 'Helvetica', 'Avant Garde', sans-serif; text-anchor: middle; fill: #555555" x="155.642649" y="6.454969" transform="rotate(-0 155.642649 6.454969)">sick</text>
   </g>
   <g id="text_20">
    <text style="font-weight: 700; font-size: 6.6px; font-family: 'DejaVu Sans', 'Bitstream Vera Sans', 'Computer Modern Sans Serif', 'Lucida Grande', 'Verdana', 'Geneva', 'Lucid', 'Arial', 'Helvetica', 'Avant Garde', sans-serif; text-anchor: middle; fill: #555555" x="207.384467" y="6.454969" transform="rotate(-0 207.384467 6.454969)">normal</text>
   </g>
   <g id="line2d_33">
    <path d="M 55.033558 105.823798 
L 60.782649 98.124929 
L 66.53174 71.184096 
L 72.280831 70.809215 
L 78.029922 65.015982 
L 83.779013 68.205982 
L 89.528104 62.299673 
L 95.277195 57.481266 
L 101.026286 53.282933 
L 106.775376 45.186504 
L 112.524467 46.094572 
L 118.273558 41.676742 
L 124.022649 44.108125 
L 129.77174 115.297013 
L 135.520831 106.015763 
L 141.269922 89.103263 
L 147.019013 81.560405 
L 152.768104 76.610405 
L 158.517195 72.072905 
L 164.266286 69.303262 
L 170.015376 65.178262 
L 175.764467 62.290762 
L 181.513558 57.753263 
L 187.262649 42.231834 
L 193.01174 50.843143 
L 198.760831 51.936458 
L 204.509922 56.852008 
L 210.259013 49.296532 
L 216.008104 48.56622 
L 221.757195 50.028556 
L 227.506286 52.343166 
" clip-path="url(#p4b8ade2e6d)" style="fill: none; stroke: #2a78d6; stroke-width: 1.6; stroke-linecap: square"/>
   </g>
   <g id="line2d_34">
    <path d="M 55.033558 98.972013 
L 60.782649 90.551715 
L 66.53174 63.427548 
L 72.280831 66.58731 
L 78.029922 63.805076 
L 83.779013 71.977814 
L 89.528104 64.511861 
L 95.277195 62.077695 
L 101.026286 56.085314 
L 106.775376 48.106742 
L 112.524467 45.328501 
L 118.273558 43.152979 
L 124.022649 46.145694 
L 129.77174 106.634512 
L 135.520831 92.815763 
L 141.269922 71.365763 
L 147.019013 55.101477 
L 152.768104 45.613977 
L 158.517195 35.713977 
L 164.266286 34.240762 
L 170.015376 30.940762 
L 175.764467 32.590763 
L 181.513558 30.528263 
L 187.262649 79.068084 
L 193.01174 82.935643 
L 198.760831 77.951458 
L 204.509922 70.540698 
L 210.259013 58.803079 
L 216.008104 51.408601 
L 221.757195 51.227246 
L 227.506286 49.111916 
" clip-path="url(#p4b8ade2e6d)" style="fill: none; stroke: #eb6834; stroke-width: 1.6; stroke-linecap: square"/>
   </g>
   <g id="line2d_35">
    <path d="M 55.033558 110.909691 
L 60.782649 98.91481 
L 66.53174 81.566239 
L 72.280831 80.281001 
L 78.029922 79.624123 
L 83.779013 87.914719 
L 89.528104 82.483528 
L 95.277195 88.032365 
L 101.026286 77.628198 
L 106.775376 76.242512 
L 112.524467 75.004123 
L 118.273558 75.13427 
L 124.022649 78.037232 
L 129.77174 106.015763 
L 135.520831 97.765763 
L 141.269922 84.565763 
L 147.019013 78.790762 
L 152.768104 70.128263 
L 158.517195 64.353262 
L 164.266286 60.640762 
L 170.015376 58.578263 
L 175.764467 52.803262 
L 181.513558 47.234512 
L 187.262649 101.074691 
L 193.01174 97.579215 
L 198.760831 94.264297 
L 204.509922 95.546092 
L 210.259013 96.470497 
L 216.008104 87.379279 
L 221.757195 85.040799 
L 227.506286 80.88046 
" clip-path="url(#p4b8ade2e6d)" style="fill: none; stroke: #206e44; stroke-width: 1.6; stroke-linecap: square"/>
   </g>
   <g id="line2d_36">
    <path d="M 55.033558 106.060584 
L 60.782649 96.947072 
L 66.53174 80.600286 
L 72.280831 76.429691 
L 78.029922 74.550121 
L 83.779013 78.807383 
L 89.528104 77.421074 
L 95.277195 81.097292 
L 101.026286 76.214078 
L 106.775376 74.545369 
L 112.524467 71.259792 
L 118.273558 65.460918 
L 124.022649 63.162452 
L 129.77174 88.690763 
L 135.520831 85.390763 
L 141.269922 79.203262 
L 147.019013 76.02112 
L 152.768104 71.48362 
L 158.517195 69.83362 
L 164.266286 66.415762 
L 170.015376 66.003263 
L 175.764467 61.465763 
L 181.513558 58.372013 
L 187.262649 80.852727 
L 193.01174 79.505405 
L 198.760831 77.430268 
L 204.509922 76.075158 
L 210.259013 75.29742 
L 216.008104 68.553372 
L 221.757195 66.292585 
L 227.506286 62.200103 
" clip-path="url(#p4b8ade2e6d)" style="fill: none; stroke: #7a3aa7; stroke-width: 1.6; stroke-linecap: square"/>
   </g>
   <g id="legend_1">
    <g id="line2d_37">
     <path d="M 4.24 177.321669 
L 9.49 177.321669 
L 14.74 177.321669 
" style="fill: none; stroke: #2a78d6; stroke-width: 1.6; stroke-linecap: square"/>
    </g>
    <g id="text_21">
     <text style="font-weight: 700; font-size: 7px; font-family: 'DejaVu Sans', 'Bitstream Vera Sans', 'Computer Modern Sans Serif', 'Lucida Grande', 'Verdana', 'Geneva', 'Lucid', 'Arial', 'Helvetica', 'Avant Garde', sans-serif; text-anchor: start" x="20.34" y="179.771669" transform="rotate(-0 20.34 179.771669)">timetable that never forgets</text>
    </g>
    <g id="line2d_38">
     <path d="M 4.24 187.651044 
L 9.49 187.651044 
L 14.74 187.651044 
" style="fill: none; stroke: #eb6834; stroke-width: 1.6; stroke-linecap: square"/>
    </g>
    <g id="text_22">
     <text style="font-weight: 700; font-size: 7px; font-family: 'DejaVu Sans', 'Bitstream Vera Sans', 'Computer Modern Sans Serif', 'Lucida Grande', 'Verdana', 'Geneva', 'Lucid', 'Arial', 'Helvetica', 'Avant Garde', sans-serif; text-anchor: start" x="20.34" y="190.101044" transform="rotate(-0 20.34 190.101044)">timetable with a three-day memory</text>
    </g>
    <g id="line2d_39">
     <path d="M 167.443906 177.321669 
L 172.693906 177.321669 
L 177.943906 177.321669 
" style="fill: none; stroke: #206e44; stroke-width: 1.6; stroke-linecap: square"/>
    </g>
    <g id="text_23">
     <text style="font-weight: 700; font-size: 7px; font-family: 'DejaVu Sans', 'Bitstream Vera Sans', 'Computer Modern Sans Serif', 'Lucida Grande', 'Verdana', 'Geneva', 'Lucid', 'Arial', 'Helvetica', 'Avant Garde', sans-serif; text-anchor: start" x="183.543906" y="179.771669" transform="rotate(-0 183.543906 179.771669)">survival-time model</text>
    </g>
    <g id="line2d_40">
     <path d="M 167.443906 187.596356 
L 172.693906 187.596356 
L 177.943906 187.596356 
" style="fill: none; stroke: #7a3aa7; stroke-width: 1.6; stroke-linecap: square"/>
    </g>
    <g id="text_24">
     <text style="font-weight: 700; font-size: 7px; font-family: 'DejaVu Sans', 'Bitstream Vera Sans', 'Computer Modern Sans Serif', 'Lucida Grande', 'Verdana', 'Geneva', 'Lucid', 'Arial', 'Helvetica', 'Avant Garde', sans-serif; text-anchor: start" x="183.543906" y="190.046356" transform="rotate(-0 183.543906 190.046356)">whole log in the prompt</text>
    </g>
   </g>
   <g id="text_25">
    <g id="patch_5">
     <path d="M 125.207638 23.843169 
L 134.335842 23.843169 
L 134.335842 13.066762 
L 125.207638 13.066762 
z
" style="fill: #ffffff; opacity: 0.9"/>
    </g>
    <text style="font-weight: 700; font-size: 8.5px; font-family: 'DejaVu Sans', 'Bitstream Vera Sans', 'Computer Modern Sans Serif', 'Lucida Grande', 'Verdana', 'Geneva', 'Lucid', 'Arial', 'Helvetica', 'Avant Garde', sans-serif; text-anchor: middle; fill: #cc1f1f" x="129.77174" y="20.800434" transform="rotate(-0 129.77174 20.800434)">A</text>
   </g>
   <g id="text_26">
    <g id="patch_6">
     <path d="M 182.748352 23.843169 
L 191.776946 23.843169 
L 191.776946 13.066762 
L 182.748352 13.066762 
z
" style="fill: #ffffff; opacity: 0.9"/>
    </g>
    <text style="font-weight: 700; font-size: 8.5px; font-family: 'DejaVu Sans', 'Bitstream Vera Sans', 'Computer Modern Sans Serif', 'Lucida Grande', 'Verdana', 'Geneva', 'Lucid', 'Arial', 'Helvetica', 'Avant Garde', sans-serif; text-anchor: middle; fill: #cc1f1f" x="187.262649" y="20.800434" transform="rotate(-0 187.262649 20.800434)">B</text>
   </g>
  </g>
 </g>
 <defs>
  <clipPath id="p4b8ade2e6d">
   <rect x="46.409922" y="9.490762" width="189.72" height="138.6"/>
  </clipPath>
 </defs>
</svg>
