<?xml version="1.0" encoding="utf-8" standalone="no"?>
<!DOCTYPE svg PUBLIC "-//W3C//DTD SVG 1.1//EN"
  "http://www.w3.org/Graphics/SVG/1.1/DTD/svg11.dtd">
<svg xmlns:xlink="http://www.w3.org/1999/xlink" width="226.997578pt" height="196.18395pt" viewBox="0 0 226.997578 196.18395" xmlns="http://www.w3.org/2000/svg" version="1.1">
 <metadata>
  <rdf:RDF xmlns:dc="http://purl.org/dc/elements/1.1/" xmlns:cc="http://creativecommons.org/ns#" xmlns:rdf="http://www.w3.org/1999/02/22-rdf-syntax-ns#">
   <cc:Work>
    <dc:type rdf:resource="http://purl.org/dc/dcmitype/StillImage"/>
    <dc:date>2026-09-22T21:06:09.950827</dc:date>
    <dc:format>image/svg+xml</dc:format>
    <dc:creator>
     <cc:Agent>
      <dc:title>Matplotlib v3.10.8, https://matplotlib.org/</dc:title>
     </cc:Agent>
    </dc:creator>
   </cc:Work>
  </rdf:RDF>
 </metadata>
 <defs>
  <style type="text/css">*{stroke-linejoin: round; stroke-linecap: butt}</style>
 </defs>
 <g id="figure_1">
  <g id="patch_1">
   <path d="M 0 196.18395 
L 226.997578 196.18395 
L 226.997578 0 
L 0 0 
z
" style="fill: #ffffff"/>
  </g>
  <g id="axes_1">
   <g id="patch_2">
    <path d="M 35.837578 148.477887 
L 225.557578 148.477887 
L 225.557578 9.877887 
L 35.837578 9.877887 
z
" style="fill: #ffffff"/>
   </g>
   <g id="matplotlib.axis_1">
    <g id="xtick_1">
     <g id="line2d_1">
      <path d="M 38.712124 148.477887 
L 38.712124 9.877887 
" clip-path="url(#pb4bfa4bca5)" style="fill: none; stroke: #dddddd; stroke-opacity: 0.5; stroke-width: 0.6; stroke-linecap: square"/>
     </g>
     <g id="line2d_2">
      <defs>
       <path id="mf8c0efc504" d="M 0 0 
L 0 3.5 
" style="stroke: #444444; stroke-width: 0.8"/>
      </defs>
      <g>
       <use xlink:href="#mf8c0efc504" x="38.712124" y="148.477887" style="fill: #444444; stroke: #444444; stroke-width: 0.8"/>
      </g>
     </g>
     <g id="text_1">
      <text style="font-weight: 700; font-size: 7.5px; font-family: 'DejaVu Sans', 'Bitstream Vera Sans', 'Computer Modern Sans Serif', 'Lucida Grande', 'Verdana', 'Geneva', 'Lucid', 'Arial', 'Helvetica', 'Avant Garde', sans-serif; text-anchor: middle; fill: #444444" x="38.712124" y="161.176716" transform="rotate(-0 38.712124 161.176716)">0</text>
     </g>
    </g>
    <g id="xtick_2">
     <g id="line2d_3">
      <path d="M 67.457578 148.477887 
L 67.457578 9.877887 
" clip-path="url(#pb4bfa4bca5)" style="fill: none; stroke: #dddddd; stroke-opacity: 0.5; stroke-width: 0.6; stroke-linecap: square"/>
     </g>
     <g id="line2d_4">
      <g>
       <use xlink:href="#mf8c0efc504" x="67.457578" y="148.477887" style="fill: #444444; stroke: #444444; stroke-width: 0.8"/>
      </g>
     </g>
     <g id="text_2">
      <text style="font-weight: 700; font-size: 7.5px; font-family: 'DejaVu Sans', 'Bitstream Vera Sans', 'Computer Modern Sans Serif', 'Lucida Grande', 'Verdana', 'Geneva', 'Lucid', 'Arial', 'Helvetica', 'Avant Garde', sans-serif; text-anchor: middle; fill: #444444" x="67.457578" y="161.176716" transform="rotate(-0 67.457578 161.176716)">5</text>
     </g>
    </g>
    <g id="xtick_3">
     <g id="line2d_5">
      <path d="M 96.203033 148.477887 
L 96.203033 9.877887 
" clip-path="url(#pb4bfa4bca5)" style="fill: none; stroke: #dddddd; stroke-opacity: 0.5; stroke-width: 0.6; stroke-linecap: square"/>
     </g>
     <g id="line2d_6">
      <g>
       <use xlink:href="#mf8c0efc504" x="96.203033" y="148.477887" style="fill: #444444; stroke: #444444; stroke-width: 0.8"/>
      </g>
     </g>
     <g id="text_3">
      <text style="font-weight: 700; font-size: 7.5px; font-family: 'DejaVu Sans', 'Bitstream Vera Sans', 'Computer Modern Sans Serif', 'Lucida Grande', 'Verdana', 'Geneva', 'Lucid', 'Arial', 'Helvetica', 'Avant Garde', sans-serif; text-anchor: middle; fill: #444444" x="96.203033" y="161.176716" transform="rotate(-0 96.203033 161.176716)">10</text>
     </g>
    </g>
    <g id="xtick_4">
     <g id="line2d_7">
      <path d="M 124.948487 148.477887 
L 124.948487 9.877887 
" clip-path="url(#pb4bfa4bca5)" style="fill: none; stroke: #dddddd; stroke-opacity: 0.5; stroke-width: 0.6; stroke-linecap: square"/>
     </g>
     <g id="line2d_8">
      <g>
       <use xlink:href="#mf8c0efc504" x="124.948487" y="148.477887" style="fill: #444444; stroke: #444444; stroke-width: 0.8"/>
      </g>
     </g>
     <g id="text_4">
      <text style="font-weight: 700; font-size: 7.5px; font-family: 'DejaVu Sans', 'Bitstream Vera Sans', 'Computer Modern Sans Serif', 'Lucida Grande', 'Verdana', 'Geneva', 'Lucid', 'Arial', 'Helvetica', 'Avant Garde', sans-serif; text-anchor: middle; fill: #444444" x="124.948487" y="161.176716" transform="rotate(-0 124.948487 161.176716)">15</text>
     </g>
    </g>
    <g id="xtick_5">
     <g id="line2d_9">
      <path d="M 153.693942 148.477887 
L 153.693942 9.877887 
" clip-path="url(#pb4bfa4bca5)" style="fill: none; stroke: #dddddd; stroke-opacity: 0.5; stroke-width: 0.6; stroke-linecap: square"/>
     </g>
     <g id="line2d_10">
      <g>
       <use xlink:href="#mf8c0efc504" x="153.693942" y="148.477887" style="fill: #444444; stroke: #444444; stroke-width: 0.8"/>
      </g>
     </g>
     <g id="text_5">
      <text style="font-weight: 700; font-size: 7.5px; font-family: 'DejaVu Sans', 'Bitstream Vera Sans', 'Computer Modern Sans Serif', 'Lucida Grande', 'Verdana', 'Geneva', 'Lucid', 'Arial', 'Helvetica', 'Avant Garde', sans-serif; text-anchor: middle; fill: #444444" x="153.693942" y="161.176716" transform="rotate(-0 153.693942 161.176716)">20</text>
     </g>
    </g>
    <g id="xtick_6">
     <g id="line2d_11">
      <path d="M 182.439396 148.477887 
L 182.439396 9.877887 
" clip-path="url(#pb4bfa4bca5)" style="fill: none; stroke: #dddddd; stroke-opacity: 0.5; stroke-width: 0.6; stroke-linecap: square"/>
     </g>
     <g id="line2d_12">
      <g>
       <use xlink:href="#mf8c0efc504" x="182.439396" y="148.477887" style="fill: #444444; stroke: #444444; stroke-width: 0.8"/>
      </g>
     </g>
     <g id="text_6">
      <text style="font-weight: 700; font-size: 7.5px; font-family: 'DejaVu Sans', 'Bitstream Vera Sans', 'Computer Modern Sans Serif', 'Lucida Grande', 'Verdana', 'Geneva', 'Lucid', 'Arial', 'Helvetica', 'Avant Garde', sans-serif; text-anchor: middle; fill: #444444" x="182.439396" y="161.176716" transform="rotate(-0 182.439396 161.176716)">25</text>
     </g>
    </g>
    <g id="xtick_7">
     <g id="line2d_13">
      <path d="M 211.184851 148.477887 
L 211.184851 9.877887 
" clip-path="url(#pb4bfa4bca5)" style="fill: none; stroke: #dddddd; stroke-opacity: 0.5; stroke-width: 0.6; stroke-linecap: square"/>
     </g>
     <g id="line2d_14">
      <g>
       <use xlink:href="#mf8c0efc504" x="211.184851" y="148.477887" style="fill: #444444; stroke: #444444; stroke-width: 0.8"/>
      </g>
     </g>
     <g id="text_7">
      <text style="font-weight: 700; font-size: 7.5px; font-family: 'DejaVu Sans', 'Bitstream Vera Sans', 'Computer Modern Sans Serif', 'Lucida Grande', 'Verdana', 'Geneva', 'Lucid', 'Arial', 'Helvetica', 'Avant Garde', sans-serif; text-anchor: middle; fill: #444444" x="211.184851" y="161.176716" transform="rotate(-0 211.184851 161.176716)">30</text>
     </g>
    </g>
    <g id="text_8">
     <text style="font-weight: 700; font-size: 8px; font-family: 'DejaVu Sans', 'Bitstream Vera Sans', 'Computer Modern Sans Serif', 'Lucida Grande', 'Verdana', 'Geneva', 'Lucid', 'Arial', 'Helvetica', 'Avant Garde', sans-serif; text-anchor: middle" x="130.697578" y="172.752731" transform="rotate(-0 130.697578 172.752731)">Day</text>
    </g>
   </g>
   <g id="matplotlib.axis_2">
    <g id="ytick_1">
     <g id="line2d_15">
      <path d="M 35.837578 148.477887 
L 225.557578 148.477887 
" clip-path="url(#pb4bfa4bca5)" style="fill: none; stroke: #dddddd; stroke-opacity: 0.5; stroke-width: 0.6; stroke-linecap: square"/>
     </g>
     <g id="line2d_16">
      <defs>
       <path id="m63251b6480" d="M 0 0 
L -3.5 0 
" style="stroke: #444444; stroke-width: 0.8"/>
      </defs>
      <g>
       <use xlink:href="#m63251b6480" x="35.837578" y="148.477887" style="fill: #444444; stroke: #444444; stroke-width: 0.8"/>
      </g>
     </g>
     <g id="text_9">
      <text style="font-weight: 700; font-size: 7.5px; font-family: 'DejaVu Sans', 'Bitstream Vera Sans', 'Computer Modern Sans Serif', 'Lucida Grande', 'Verdana', 'Geneva', 'Lucid', 'Arial', 'Helvetica', 'Avant Garde', sans-serif; text-anchor: end; fill: #444444" x="28.837578" y="151.327302" transform="rotate(-0 28.837578 151.327302)">30</text>
     </g>
    </g>
    <g id="ytick_2">
     <g id="line2d_17">
      <path d="M 35.837578 128.677887 
L 225.557578 128.677887 
" clip-path="url(#pb4bfa4bca5)" style="fill: none; stroke: #dddddd; stroke-opacity: 0.5; stroke-width: 0.6; stroke-linecap: square"/>
     </g>
     <g id="line2d_18">
      <g>
       <use xlink:href="#m63251b6480" x="35.837578" y="128.677887" style="fill: #444444; stroke: #444444; stroke-width: 0.8"/>
      </g>
     </g>
     <g id="text_10">
      <text style="font-weight: 700; font-size: 7.5px; font-family: 'DejaVu Sans', 'Bitstream Vera Sans', 'Computer Modern Sans Serif', 'Lucida Grande', 'Verdana', 'Geneva', 'Lucid', 'Arial', 'Helvetica', 'Avant Garde', sans-serif; text-anchor: end; fill: #444444" x="28.837578" y="131.527302" transform="rotate(-0 28.837578 131.527302)">40</text>
     </g>
    </g>
    <g id="ytick_3">
     <g id="line2d_19">
      <path d="M 35.837578 108.877887 
L 225.557578 108.877887 
" clip-path="url(#pb4bfa4bca5)" style="fill: none; stroke: #dddddd; stroke-opacity: 0.5; stroke-width: 0.6; stroke-linecap: square"/>
     </g>
     <g id="line2d_20">
      <g>
       <use xlink:href="#m63251b6480" x="35.837578" y="108.877887" style="fill: #444444; stroke: #444444; stroke-width: 0.8"/>
      </g>
     </g>
     <g id="text_11">
      <text style="font-weight: 700; font-size: 7.5px; font-family: 'DejaVu Sans', 'Bitstream Vera Sans', 'Computer Modern Sans Serif', 'Lucida Grande', 'Verdana', 'Geneva', 'Lucid', 'Arial', 'Helvetica', 'Avant Garde', sans-serif; text-anchor: end; fill: #444444" x="28.837578" y="111.727302" transform="rotate(-0 28.837578 111.727302)">50</text>
     </g>
    </g>
    <g id="ytick_4">
     <g id="line2d_21">
      <path d="M 35.837578 89.077887 
L 225.557578 89.077887 
" clip-path="url(#pb4bfa4bca5)" style="fill: none; stroke: #dddddd; stroke-opacity: 0.5; stroke-width: 0.6; stroke-linecap: square"/>
     </g>
     <g id="line2d_22">
      <g>
       <use xlink:href="#m63251b6480" x="35.837578" y="89.077887" style="fill: #444444; stroke: #444444; stroke-width: 0.8"/>
      </g>
     </g>
     <g id="text_12">
      <text style="font-weight: 700; font-size: 7.5px; font-family: 'DejaVu Sans', 'Bitstream Vera Sans', 'Computer Modern Sans Serif', 'Lucida Grande', 'Verdana', 'Geneva', 'Lucid', 'Arial', 'Helvetica', 'Avant Garde', sans-serif; text-anchor: end; fill: #444444" x="28.837578" y="91.927302" transform="rotate(-0 28.837578 91.927302)">60</text>
     </g>
    </g>
    <g id="ytick_5">
     <g id="line2d_23">
      <path d="M 35.837578 69.277887 
L 225.557578 69.277887 
" clip-path="url(#pb4bfa4bca5)" style="fill: none; stroke: #dddddd; stroke-opacity: 0.5; stroke-width: 0.6; stroke-linecap: square"/>
     </g>
     <g id="line2d_24">
      <g>
       <use xlink:href="#m63251b6480" x="35.837578" y="69.277887" style="fill: #444444; stroke: #444444; stroke-width: 0.8"/>
      </g>
     </g>
     <g id="text_13">
      <text style="font-weight: 700; font-size: 7.5px; font-family: 'DejaVu Sans', 'Bitstream Vera Sans', 'Computer Modern Sans Serif', 'Lucida Grande', 'Verdana', 'Geneva', 'Lucid', 'Arial', 'Helvetica', 'Avant Garde', sans-serif; text-anchor: end; fill: #444444" x="28.837578" y="72.127302" transform="rotate(-0 28.837578 72.127302)">70</text>
     </g>
    </g>
    <g id="ytick_6">
     <g id="line2d_25">
      <path d="M 35.837578 49.477887 
L 225.557578 49.477887 
" clip-path="url(#pb4bfa4bca5)" style="fill: none; stroke: #dddddd; stroke-opacity: 0.5; stroke-width: 0.6; stroke-linecap: square"/>
     </g>
     <g id="line2d_26">
      <g>
       <use xlink:href="#m63251b6480" x="35.837578" y="49.477887" style="fill: #444444; stroke: #444444; stroke-width: 0.8"/>
      </g>
     </g>
     <g id="text_14">
      <text style="font-weight: 700; font-size: 7.5px; font-family: 'DejaVu Sans', 'Bitstream Vera Sans', 'Computer Modern Sans Serif', 'Lucida Grande', 'Verdana', 'Geneva', 'Lucid', 'Arial', 'Helvetica', 'Avant Garde', sans-serif; text-anchor: end; fill: #444444" x="28.837578" y="52.327302" transform="rotate(-0 28.837578 52.327302)">80</text>
     </g>
    </g>
    <g id="ytick_7">
     <g id="line2d_27">
      <path d="M 35.837578 29.677887 
L 225.557578 29.677887 
" clip-path="url(#pb4bfa4bca5)" style="fill: none; stroke: #dddddd; stroke-opacity: 0.5; stroke-width: 0.6; stroke-linecap: square"/>
     </g>
     <g id="line2d_28">
      <g>
       <use xlink:href="#m63251b6480" x="35.837578" y="29.677887" style="fill: #444444; stroke: #444444; stroke-width: 0.8"/>
      </g>
     </g>
     <g id="text_15">
      <text style="font-weight: 700; font-size: 7.5px; font-family: 'DejaVu Sans', 'Bitstream Vera Sans', 'Computer Modern Sans Serif', 'Lucida Grande', 'Verdana', 'Geneva', 'Lucid', 'Arial', 'Helvetica', 'Avant Garde', sans-serif; text-anchor: end; fill: #444444" x="28.837578" y="32.527302" transform="rotate(-0 28.837578 32.527302)">90</text>
     </g>
    </g>
    <g id="ytick_8">
     <g id="line2d_29">
      <path d="M 35.837578 9.877887 
L 225.557578 9.877887 
" clip-path="url(#pb4bfa4bca5)" style="fill: none; stroke: #dddddd; stroke-opacity: 0.5; stroke-width: 0.6; stroke-linecap: square"/>
     </g>
     <g id="line2d_30">
      <g>
       <use xlink:href="#m63251b6480" x="35.837578" y="9.877887" style="fill: #444444; stroke: #444444; stroke-width: 0.8"/>
      </g>
     </g>
     <g id="text_16">
      <text style="font-weight: 700; font-size: 7.5px; font-family: 'DejaVu Sans', 'Bitstream Vera Sans', 'Computer Modern Sans Serif', 'Lucida Grande', 'Verdana', 'Geneva', 'Lucid', 'Arial', 'Helvetica', 'Avant Garde', sans-serif; text-anchor: end; fill: #444444" x="28.837578" y="12.727302" transform="rotate(-0 28.837578 12.727302)">100</text>
     </g>
    </g>
    <g id="text_17">
     <text style="font-weight: 700; font-size: 8px; font-family: 'DejaVu Sans', 'Bitstream Vera Sans', 'Computer Modern Sans Serif', 'Lucida Grande', 'Verdana', 'Geneva', 'Lucid', 'Arial', 'Helvetica', 'Avant Garde', sans-serif; text-anchor: middle" x="7.45625" y="79.177887" transform="rotate(-90 7.45625 79.177887)">Accuracy</text>
    </g>
   </g>
   <g id="FillBetweenPolyCollection_1">
    <defs>
     <path id="ma710bb7372" d="M 44.461214 -86.13142 
L 44.461214 -59.825705 
L 50.210305 -106.582848 
L 55.959396 -109.227491 
L 61.708487 -119.160229 
L 67.457578 -113.804277 
L 73.206669 -117.922729 
L 78.95576 -101.350705 
L 84.704851 -122.204872 
L 90.453942 -108.743563 
L 96.203033 -122.231063 
L 101.952124 -119.592372 
L 107.701214 -123.252491 
L 113.450305 -129.346612 
L 119.199396 -91.018563 
L 124.948487 -95.968563 
L 130.697578 -109.581063 
L 136.446669 -104.631063 
L 142.19576 -104.807848 
L 147.944851 -118.243562 
L 153.693942 -112.056063 
L 159.443033 -118.243562 
L 165.192124 -120.718563 
L 170.941214 -126.906063 
L 176.690305 -112.743563 
L 182.439396 -115.493563 
L 188.188487 -116.868563 
L 193.937578 -121.93642 
L 199.686669 -117.297683 
L 205.43576 -122.929991 
L 211.184851 -140.669158 
L 216.933942 -129.014396 
L 216.933942 -142.697409 
L 216.933942 -142.697409 
L 211.184851 -150.397409 
L 205.43576 -154.98142 
L 199.686669 -150.658398 
L 193.937578 -146.415046 
L 188.188487 -131.801063 
L 182.439396 -137.576063 
L 176.690305 -143.414991 
L 170.941214 -145.056063 
L 165.192124 -160.318563 
L 159.443033 -149.181063 
L 153.693942 -146.706063 
L 147.944851 -145.468563 
L 142.19576 -129.204277 
L 136.446669 -134.331063 
L 130.697578 -139.281063 
L 124.948487 -115.768563 
L 119.199396 -109.993563 
L 113.450305 -153.998398 
L 107.701214 -146.776777 
L 101.952124 -156.2812 
L 96.203033 -144.561062 
L 90.453942 -136.579689 
L 84.704851 -145.168563 
L 78.95576 -135.804277 
L 73.206669 -129.634909 
L 67.457578 -127.220348 
L 61.708487 -136.452491 
L 55.959396 -122.509991 
L 50.210305 -117.280705 
L 44.461214 -86.13142 
z
"/>
    </defs>
    <g clip-path="url(#pb4bfa4bca5)">
     <use xlink:href="#ma710bb7372" x="0" y="196.18395" style="fill: #712d9e; fill-opacity: 0.13"/>
    </g>
   </g>
   <g id="line2d_31">
    <path d="M 119.199396 148.477887 
L 119.199396 9.877887 
" clip-path="url(#pb4bfa4bca5)" style="fill: none; stroke-dasharray: 0.9,1.485; stroke-dashoffset: 0; stroke: #141413; stroke-opacity: 0.75; stroke-width: 0.9"/>
   </g>
   <g id="line2d_32">
    <path d="M 176.690305 148.477887 
L 176.690305 9.877887 
" clip-path="url(#pb4bfa4bca5)" style="fill: none; stroke-dasharray: 0.9,1.485; stroke-dashoffset: 0; stroke: #141413; stroke-opacity: 0.75; stroke-width: 0.9"/>
   </g>
   <g id="FillBetweenPolyCollection_2">
    <defs>
     <path id="m41e07e322d" d="M 44.461214 -81.335607 
L 44.461214 -62.413661 
L 50.210305 -108.59153 
L 55.959396 -109.959007 
L 61.708487 -143.895628 
L 67.457578 -98.313761 
L 73.206669 -112.623715 
L 78.95576 -119.854809 
L 84.704851 -124.76013 
L 90.453942 -131.162815 
L 96.203033 -134.145454 
L 101.952124 -151.661893 
L 107.701214 -138.192614 
L 113.450305 -146.218544 
L 119.199396 -62.556063 
L 124.948487 -93.187961 
L 130.697578 -118.770402 
L 136.446669 -126.701917 
L 142.19576 -149.361451 
L 147.944851 -153.018575 
L 153.693942 -161.556063 
L 159.443033 -154.638302 
L 165.192124 -163.089384 
L 170.941214 -156.338304 
L 176.690305 -97.034054 
L 182.439396 -105.273201 
L 188.188487 -96.238668 
L 193.937578 -119.413166 
L 199.686669 -131.874989 
L 205.43576 -135.297832 
L 211.184851 -143.868067 
L 216.933942 -131.718417 
L 216.933942 -152.8514 
L 216.933942 -152.8514 
L 211.184851 -158.30175 
L 205.43576 -145.380007 
L 199.686669 -151.606696 
L 193.937578 -138.389784 
L 188.188487 -114.013457 
L 182.439396 -133.743924 
L 176.690305 -130.863785 
L 170.941214 -166.773821 
L 165.192124 -174.872741 
L 159.443033 -163.523823 
L 153.693942 -171.456063 
L 147.944851 -165.14355 
L 142.19576 -159.961389 
L 136.446669 -146.910208 
L 130.697578 -142.466723 
L 124.948487 -118.549164 
L 119.199396 -82.356063 
L 113.450305 -160.246713 
L 107.701214 -153.946654 
L 101.952124 -165.59666 
L 96.203033 -159.266671 
L 90.453942 -144.307002 
L 84.704851 -144.626995 
L 78.95576 -137.603031 
L 73.206669 -148.241102 
L 67.457578 -126.277649 
L 61.708487 -162.59864 
L 55.959396 -134.212404 
L 50.210305 -134.958452 
L 44.461214 -81.335607 
z
"/>
    </defs>
    <g clip-path="url(#pb4bfa4bca5)">
     <use xlink:href="#m41e07e322d" x="0" y="196.18395" style="fill: #eb6834; fill-opacity: 0.13"/>
    </g>
   </g>
   <g id="patch_3">
    <path d="M 35.837578 148.477887 
L 35.837578 9.877887 
" style="fill: none; stroke: #444444; stroke-width: 0.8; stroke-linejoin: miter; stroke-linecap: square"/>
   </g>
   <g id="patch_4">
    <path d="M 35.837578 148.477887 
L 225.557578 148.477887 
" style="fill: none; stroke: #444444; stroke-width: 0.8; stroke-linejoin: miter; stroke-linecap: square"/>
   </g>
   <g id="text_18">
    <text style="font-weight: 700; font-size: 7px; font-family: 'DejaVu Sans', 'Bitstream Vera Sans', 'Computer Modern Sans Serif', 'Lucida Grande', 'Verdana', 'Geneva', 'Lucid', 'Arial', 'Helvetica', 'Avant Garde', sans-serif; text-anchor: middle; fill: #141413" x="119.199396" y="6.758906" transform="rotate(-0 119.199396 6.758906)">sick</text>
   </g>
   <g id="text_19">
    <text style="font-weight: 700; font-size: 7px; font-family: 'DejaVu Sans', 'Bitstream Vera Sans', 'Computer Modern Sans Serif', 'Lucida Grande', 'Verdana', 'Geneva', 'Lucid', 'Arial', 'Helvetica', 'Avant Garde', sans-serif; text-anchor: middle; fill: #141413" x="176.690305" y="6.758906" transform="rotate(-0 176.690305 6.758906)">back to normal</text>
   </g>
   <g id="line2d_33">
    <path d="M 44.461214 99.359137 
L 50.210305 90.93884 
L 55.959396 63.814673 
L 61.708487 66.974435 
L 67.457578 64.192201 
L 73.206669 72.364939 
L 78.95576 64.898986 
L 84.704851 62.46482 
L 90.453942 56.472439 
L 96.203033 48.493867 
L 101.952124 45.715626 
L 107.701214 43.540104 
L 113.450305 46.532819 
L 119.199396 107.021637 
L 124.948487 93.202887 
L 130.697578 71.752887 
L 136.446669 55.488602 
L 142.19576 46.001102 
L 147.944851 36.101102 
L 153.693942 34.627887 
L 159.443033 31.327887 
L 165.192124 32.977887 
L 170.941214 30.915387 
L 176.690305 79.455209 
L 182.439396 83.322768 
L 188.188487 78.338583 
L 193.937578 70.927823 
L 199.686669 59.190204 
L 205.43576 51.795726 
L 211.184851 51.614371 
L 216.933942 49.499041 
" clip-path="url(#pb4bfa4bca5)" style="fill: none; stroke: #eb6834; stroke-width: 1.9; stroke-linecap: square"/>
   </g>
   <g id="line2d_34">
    <path d="M 44.461214 95.523602 
L 50.210305 88.240387 
L 55.959396 73.051221 
L 61.708487 73.512888 
L 67.457578 71.137915 
L 73.206669 77.855772 
L 78.95576 71.152201 
L 84.704851 71.433016 
L 90.453942 64.497778 
L 96.203033 62.284499 
L 101.952124 59.287228 
L 107.701214 60.288712 
L 113.450305 62.618506 
L 119.199396 87.221637 
L 124.948487 77.115387 
L 130.697578 66.390387 
L 136.446669 61.911816 
L 142.19576 59.849316 
L 147.944851 55.724316 
L 153.693942 49.065387 
L 159.443033 44.115387 
L 165.192124 46.177887 
L 170.941214 45.765387 
L 176.690305 73.107352 
L 182.439396 70.199197 
L 188.188487 68.690516 
L 193.937578 68.144023 
L 199.686669 71.101047 
L 205.43576 64.826212 
L 211.184851 63.775589 
L 216.933942 59.036404 
" clip-path="url(#pb4bfa4bca5)" style="fill: none; stroke: #2d123f; stroke-width: 1.2; stroke-linecap: square"/>
   </g>
   <g id="line2d_35">
    <path d="M 44.461214 112.979673 
L 50.210305 104.305268 
L 55.959396 84.527094 
L 61.708487 80.834435 
L 67.457578 77.936022 
L 73.206669 83.87253 
L 78.95576 82.357848 
L 84.704851 85.41757 
L 90.453942 78.457451 
L 96.203033 79.328284 
L 101.952124 74.491975 
L 107.701214 66.73909 
L 113.450305 61.812846 
L 119.199396 85.159137 
L 124.948487 80.690387 
L 130.697578 73.127887 
L 136.446669 69.002887 
L 142.19576 65.565387 
L 147.944851 66.940387 
L 153.693942 65.565387 
L 159.443033 64.877887 
L 165.192124 59.377887 
L 170.941214 55.252887 
L 176.690305 82.065387 
L 182.439396 81.148721 
L 188.188487 78.084435 
L 193.937578 77.483061 
L 199.686669 75.197942 
L 205.43576 68.953696 
L 211.184851 65.048126 
L 216.933942 61.342173 
" clip-path="url(#pb4bfa4bca5)" style="fill: none; stroke: #712d9e; stroke-width: 1.2; stroke-linecap: square"/>
   </g>
   <g id="line2d_36">
    <path d="M 44.461214 94.959137 
L 50.210305 88.414078 
L 55.959396 71.319554 
L 61.708487 68.00634 
L 67.457578 65.970534 
L 73.206669 66.186605 
L 78.95576 60.203867 
L 84.704851 56.999774 
L 90.453942 54.080845 
L 96.203033 50.376633 
L 101.952124 46.977604 
L 107.701214 43.831825 
L 113.450305 45.796363 
L 119.199396 102.690387 
L 124.948487 97.327887 
L 130.697578 92.790387 
L 136.446669 89.843959 
L 142.19576 86.956459 
L 147.944851 84.481459 
L 153.693942 80.002887 
L 159.443033 79.177887 
L 165.192124 74.227887 
L 170.941214 72.371637 
L 176.690305 55.688423 
L 182.439396 58.907411 
L 188.188487 57.907393 
L 193.937578 53.546615 
L 199.686669 45.498996 
L 205.43576 44.171541 
L 211.184851 46.825204 
L 216.933942 49.636541 
" clip-path="url(#pb4bfa4bca5)" style="fill: none; stroke: #b178d7; stroke-width: 1.2; stroke-linecap: square"/>
   </g>
   <g id="legend_1">
    <g id="line2d_37">
     <path d="M 54.942266 177.708794 
L 60.192266 177.708794 
L 65.442266 177.708794 
" style="fill: none; stroke: #eb6834; stroke-width: 1.9; stroke-linecap: square"/>
    </g>
    <g id="text_20">
     <text style="font-weight: 700; font-size: 7px; font-family: 'DejaVu Sans', 'Bitstream Vera Sans', 'Computer Modern Sans Serif', 'Lucida Grande', 'Verdana', 'Geneva', 'Lucid', 'Arial', 'Helvetica', 'Avant Garde', sans-serif; text-anchor: start" x="71.042266" y="180.158794" transform="rotate(-0 71.042266 180.158794)">3-day timetable</text>
    </g>
    <g id="line2d_38">
     <path d="M 54.942266 188.038169 
L 60.192266 188.038169 
L 65.442266 188.038169 
" style="fill: none; stroke: #2d123f; stroke-width: 1.2; stroke-linecap: square"/>
    </g>
    <g id="text_21">
     <text style="font-weight: 700; font-size: 7px; font-family: 'DejaVu Sans', 'Bitstream Vera Sans', 'Computer Modern Sans Serif', 'Lucida Grande', 'Verdana', 'Geneva', 'Lucid', 'Arial', 'Helvetica', 'Avant Garde', sans-serif; text-anchor: start" x="71.042266" y="190.488169" transform="rotate(-0 71.042266 190.488169)">reflection</text>
    </g>
    <g id="line2d_39">
     <path d="M 140.348828 177.708794 
L 145.598828 177.708794 
L 150.848828 177.708794 
" style="fill: none; stroke: #712d9e; stroke-width: 1.2; stroke-linecap: square"/>
    </g>
    <g id="text_22">
     <text style="font-weight: 700; font-size: 7px; font-family: 'DejaVu Sans', 'Bitstream Vera Sans', 'Computer Modern Sans Serif', 'Lucida Grande', 'Verdana', 'Geneva', 'Lucid', 'Arial', 'Helvetica', 'Avant Garde', sans-serif; text-anchor: start" x="156.448828" y="180.158794" transform="rotate(-0 156.448828 180.158794)">long-context</text>
    </g>
    <g id="line2d_40">
     <path d="M 140.348828 188.038169 
L 145.598828 188.038169 
L 150.848828 188.038169 
" style="fill: none; stroke: #b178d7; stroke-width: 1.2; stroke-linecap: square"/>
    </g>
    <g id="text_23">
     <text style="font-weight: 700; font-size: 7px; font-family: 'DejaVu Sans', 'Bitstream Vera Sans', 'Computer Modern Sans Serif', 'Lucida Grande', 'Verdana', 'Geneva', 'Lucid', 'Arial', 'Helvetica', 'Avant Garde', sans-serif; text-anchor: start" x="156.448828" y="190.488169" transform="rotate(-0 156.448828 190.488169)">retrieval</text>
    </g>
   </g>
  </g>
 </g>
 <defs>
  <clipPath id="pb4bfa4bca5">
   <rect x="35.837578" y="9.877887" width="189.72" height="138.6"/>
  </clipPath>
 </defs>
</svg>
