<?xml version="1.0" encoding="utf-8" standalone="no"?>
<!DOCTYPE svg PUBLIC "-//W3C//DTD SVG 1.1//EN"
  "http://www.w3.org/Graphics/SVG/1.1/DTD/svg11.dtd">
<svg xmlns:xlink="http://www.w3.org/1999/xlink" width="227.342891pt" height="242.252129pt" viewBox="0 0 227.342891 242.252129" xmlns="http://www.w3.org/2000/svg" version="1.1">
 <metadata>
  <rdf:RDF xmlns:dc="http://purl.org/dc/elements/1.1/" xmlns:cc="http://creativecommons.org/ns#" xmlns:rdf="http://www.w3.org/1999/02/22-rdf-syntax-ns#">
   <cc:Work>
    <dc:type rdf:resource="http://purl.org/dc/dcmitype/StillImage"/>
    <dc:date>2026-09-22T20:07:52.086498</dc:date>
    <dc:format>image/svg+xml</dc:format>
    <dc:creator>
     <cc:Agent>
      <dc:title>Matplotlib v3.10.8, https://matplotlib.org/</dc:title>
     </cc:Agent>
    </dc:creator>
   </cc:Work>
  </rdf:RDF>
 </metadata>
 <defs>
  <style type="text/css">*{stroke-linejoin: round; stroke-linecap: butt}</style>
 </defs>
 <g id="figure_1">
  <g id="patch_1">
   <path d="M 0 242.252129 
L 227.342891 242.252129 
L 227.342891 0 
L 0 0 
z
" style="fill: #ffffff"/>
  </g>
  <g id="axes_1">
   <g id="patch_2">
    <path d="M 34.498125 148.477888 
L 224.218125 148.477888 
L 224.218125 9.877887 
L 34.498125 9.877887 
z
" style="fill: #ffffff"/>
   </g>
   <g id="matplotlib.axis_1">
    <g id="xtick_1">
     <g id="line2d_1">
      <path d="M 37.37267 148.477888 
L 37.37267 9.877887 
" clip-path="url(#pce15ad705b)" style="fill: none; stroke: #dddddd; stroke-opacity: 0.5; stroke-width: 0.6; stroke-linecap: square"/>
     </g>
     <g id="line2d_2">
      <defs>
       <path id="m78da7958cd" d="M 0 0 
L 0 3.5 
" style="stroke: #444444; stroke-width: 0.8"/>
      </defs>
      <g>
       <use xlink:href="#m78da7958cd" x="37.37267" y="148.477888" style="fill: #444444; stroke: #444444; stroke-width: 0.8"/>
      </g>
     </g>
     <g id="text_1">
      <text style="font-size: 7.5px; font-family: 'DejaVu Sans', 'Bitstream Vera Sans', 'Computer Modern Sans Serif', 'Lucida Grande', 'Verdana', 'Geneva', 'Lucid', 'Arial', 'Helvetica', 'Avant Garde', sans-serif; text-anchor: middle; fill: #444444" x="37.37267" y="161.176716" transform="rotate(-0 37.37267 161.176716)">0</text>
     </g>
    </g>
    <g id="xtick_2">
     <g id="line2d_3">
      <path d="M 66.118125 148.477888 
L 66.118125 9.877887 
" clip-path="url(#pce15ad705b)" style="fill: none; stroke: #dddddd; stroke-opacity: 0.5; stroke-width: 0.6; stroke-linecap: square"/>
     </g>
     <g id="line2d_4">
      <g>
       <use xlink:href="#m78da7958cd" x="66.118125" y="148.477888" style="fill: #444444; stroke: #444444; stroke-width: 0.8"/>
      </g>
     </g>
     <g id="text_2">
      <text style="font-size: 7.5px; font-family: 'DejaVu Sans', 'Bitstream Vera Sans', 'Computer Modern Sans Serif', 'Lucida Grande', 'Verdana', 'Geneva', 'Lucid', 'Arial', 'Helvetica', 'Avant Garde', sans-serif; text-anchor: middle; fill: #444444" x="66.118125" y="161.176716" transform="rotate(-0 66.118125 161.176716)">5</text>
     </g>
    </g>
    <g id="xtick_3">
     <g id="line2d_5">
      <path d="M 94.86358 148.477888 
L 94.86358 9.877887 
" clip-path="url(#pce15ad705b)" style="fill: none; stroke: #dddddd; stroke-opacity: 0.5; stroke-width: 0.6; stroke-linecap: square"/>
     </g>
     <g id="line2d_6">
      <g>
       <use xlink:href="#m78da7958cd" x="94.86358" y="148.477888" style="fill: #444444; stroke: #444444; stroke-width: 0.8"/>
      </g>
     </g>
     <g id="text_3">
      <text style="font-size: 7.5px; font-family: 'DejaVu Sans', 'Bitstream Vera Sans', 'Computer Modern Sans Serif', 'Lucida Grande', 'Verdana', 'Geneva', 'Lucid', 'Arial', 'Helvetica', 'Avant Garde', sans-serif; text-anchor: middle; fill: #444444" x="94.86358" y="161.176716" transform="rotate(-0 94.86358 161.176716)">10</text>
     </g>
    </g>
    <g id="xtick_4">
     <g id="line2d_7">
      <path d="M 123.609034 148.477888 
L 123.609034 9.877887 
" clip-path="url(#pce15ad705b)" style="fill: none; stroke: #dddddd; stroke-opacity: 0.5; stroke-width: 0.6; stroke-linecap: square"/>
     </g>
     <g id="line2d_8">
      <g>
       <use xlink:href="#m78da7958cd" x="123.609034" y="148.477888" style="fill: #444444; stroke: #444444; stroke-width: 0.8"/>
      </g>
     </g>
     <g id="text_4">
      <text style="font-size: 7.5px; font-family: 'DejaVu Sans', 'Bitstream Vera Sans', 'Computer Modern Sans Serif', 'Lucida Grande', 'Verdana', 'Geneva', 'Lucid', 'Arial', 'Helvetica', 'Avant Garde', sans-serif; text-anchor: middle; fill: #444444" x="123.609034" y="161.176716" transform="rotate(-0 123.609034 161.176716)">15</text>
     </g>
    </g>
    <g id="xtick_5">
     <g id="line2d_9">
      <path d="M 152.354489 148.477888 
L 152.354489 9.877887 
" clip-path="url(#pce15ad705b)" style="fill: none; stroke: #dddddd; stroke-opacity: 0.5; stroke-width: 0.6; stroke-linecap: square"/>
     </g>
     <g id="line2d_10">
      <g>
       <use xlink:href="#m78da7958cd" x="152.354489" y="148.477888" style="fill: #444444; stroke: #444444; stroke-width: 0.8"/>
      </g>
     </g>
     <g id="text_5">
      <text style="font-size: 7.5px; font-family: 'DejaVu Sans', 'Bitstream Vera Sans', 'Computer Modern Sans Serif', 'Lucida Grande', 'Verdana', 'Geneva', 'Lucid', 'Arial', 'Helvetica', 'Avant Garde', sans-serif; text-anchor: middle; fill: #444444" x="152.354489" y="161.176716" transform="rotate(-0 152.354489 161.176716)">20</text>
     </g>
    </g>
    <g id="xtick_6">
     <g id="line2d_11">
      <path d="M 181.099943 148.477888 
L 181.099943 9.877887 
" clip-path="url(#pce15ad705b)" style="fill: none; stroke: #dddddd; stroke-opacity: 0.5; stroke-width: 0.6; stroke-linecap: square"/>
     </g>
     <g id="line2d_12">
      <g>
       <use xlink:href="#m78da7958cd" x="181.099943" y="148.477888" style="fill: #444444; stroke: #444444; stroke-width: 0.8"/>
      </g>
     </g>
     <g id="text_6">
      <text style="font-size: 7.5px; font-family: 'DejaVu Sans', 'Bitstream Vera Sans', 'Computer Modern Sans Serif', 'Lucida Grande', 'Verdana', 'Geneva', 'Lucid', 'Arial', 'Helvetica', 'Avant Garde', sans-serif; text-anchor: middle; fill: #444444" x="181.099943" y="161.176716" transform="rotate(-0 181.099943 161.176716)">25</text>
     </g>
    </g>
    <g id="xtick_7">
     <g id="line2d_13">
      <path d="M 209.845398 148.477888 
L 209.845398 9.877887 
" clip-path="url(#pce15ad705b)" style="fill: none; stroke: #dddddd; stroke-opacity: 0.5; stroke-width: 0.6; stroke-linecap: square"/>
     </g>
     <g id="line2d_14">
      <g>
       <use xlink:href="#m78da7958cd" x="209.845398" y="148.477888" style="fill: #444444; stroke: #444444; stroke-width: 0.8"/>
      </g>
     </g>
     <g id="text_7">
      <text style="font-size: 7.5px; font-family: 'DejaVu Sans', 'Bitstream Vera Sans', 'Computer Modern Sans Serif', 'Lucida Grande', 'Verdana', 'Geneva', 'Lucid', 'Arial', 'Helvetica', 'Avant Garde', sans-serif; text-anchor: middle; fill: #444444" x="209.845398" y="161.176716" transform="rotate(-0 209.845398 161.176716)">30</text>
     </g>
    </g>
    <g id="text_8">
     <text style="font-size: 8px; font-family: 'DejaVu Sans', 'Bitstream Vera Sans', 'Computer Modern Sans Serif', 'Lucida Grande', 'Verdana', 'Geneva', 'Lucid', 'Arial', 'Helvetica', 'Avant Garde', sans-serif; text-anchor: middle" x="129.358125" y="172.815231" transform="rotate(-0 129.358125 172.815231)">day</text>
    </g>
   </g>
   <g id="matplotlib.axis_2">
    <g id="ytick_1">
     <g id="line2d_15">
      <path d="M 34.498125 148.477887 
L 224.218125 148.477887 
" clip-path="url(#pce15ad705b)" style="fill: none; stroke: #dddddd; stroke-opacity: 0.5; stroke-width: 0.6; stroke-linecap: square"/>
     </g>
     <g id="line2d_16">
      <defs>
       <path id="me1d6108b75" d="M 0 0 
L -3.5 0 
" style="stroke: #444444; stroke-width: 0.8"/>
      </defs>
      <g>
       <use xlink:href="#me1d6108b75" x="34.498125" y="148.477887" style="fill: #444444; stroke: #444444; stroke-width: 0.8"/>
      </g>
     </g>
     <g id="text_9">
      <text style="font-size: 7.5px; font-family: 'DejaVu Sans', 'Bitstream Vera Sans', 'Computer Modern Sans Serif', 'Lucida Grande', 'Verdana', 'Geneva', 'Lucid', 'Arial', 'Helvetica', 'Avant Garde', sans-serif; text-anchor: end; fill: #444444" x="27.498125" y="151.327302" transform="rotate(-0 27.498125 151.327302)">30</text>
     </g>
    </g>
    <g id="ytick_2">
     <g id="line2d_17">
      <path d="M 34.498125 128.677887 
L 224.218125 128.677887 
" clip-path="url(#pce15ad705b)" style="fill: none; stroke: #dddddd; stroke-opacity: 0.5; stroke-width: 0.6; stroke-linecap: square"/>
     </g>
     <g id="line2d_18">
      <g>
       <use xlink:href="#me1d6108b75" x="34.498125" y="128.677887" style="fill: #444444; stroke: #444444; stroke-width: 0.8"/>
      </g>
     </g>
     <g id="text_10">
      <text style="font-size: 7.5px; font-family: 'DejaVu Sans', 'Bitstream Vera Sans', 'Computer Modern Sans Serif', 'Lucida Grande', 'Verdana', 'Geneva', 'Lucid', 'Arial', 'Helvetica', 'Avant Garde', sans-serif; text-anchor: end; fill: #444444" x="27.498125" y="131.527302" transform="rotate(-0 27.498125 131.527302)">40</text>
     </g>
    </g>
    <g id="ytick_3">
     <g id="line2d_19">
      <path d="M 34.498125 108.877887 
L 224.218125 108.877887 
" clip-path="url(#pce15ad705b)" style="fill: none; stroke: #dddddd; stroke-opacity: 0.5; stroke-width: 0.6; stroke-linecap: square"/>
     </g>
     <g id="line2d_20">
      <g>
       <use xlink:href="#me1d6108b75" x="34.498125" y="108.877887" style="fill: #444444; stroke: #444444; stroke-width: 0.8"/>
      </g>
     </g>
     <g id="text_11">
      <text style="font-size: 7.5px; font-family: 'DejaVu Sans', 'Bitstream Vera Sans', 'Computer Modern Sans Serif', 'Lucida Grande', 'Verdana', 'Geneva', 'Lucid', 'Arial', 'Helvetica', 'Avant Garde', sans-serif; text-anchor: end; fill: #444444" x="27.498125" y="111.727302" transform="rotate(-0 27.498125 111.727302)">50</text>
     </g>
    </g>
    <g id="ytick_4">
     <g id="line2d_21">
      <path d="M 34.498125 89.077887 
L 224.218125 89.077887 
" clip-path="url(#pce15ad705b)" style="fill: none; stroke: #dddddd; stroke-opacity: 0.5; stroke-width: 0.6; stroke-linecap: square"/>
     </g>
     <g id="line2d_22">
      <g>
       <use xlink:href="#me1d6108b75" x="34.498125" y="89.077887" style="fill: #444444; stroke: #444444; stroke-width: 0.8"/>
      </g>
     </g>
     <g id="text_12">
      <text style="font-size: 7.5px; font-family: 'DejaVu Sans', 'Bitstream Vera Sans', 'Computer Modern Sans Serif', 'Lucida Grande', 'Verdana', 'Geneva', 'Lucid', 'Arial', 'Helvetica', 'Avant Garde', sans-serif; text-anchor: end; fill: #444444" x="27.498125" y="91.927302" transform="rotate(-0 27.498125 91.927302)">60</text>
     </g>
    </g>
    <g id="ytick_5">
     <g id="line2d_23">
      <path d="M 34.498125 69.277887 
L 224.218125 69.277887 
" clip-path="url(#pce15ad705b)" style="fill: none; stroke: #dddddd; stroke-opacity: 0.5; stroke-width: 0.6; stroke-linecap: square"/>
     </g>
     <g id="line2d_24">
      <g>
       <use xlink:href="#me1d6108b75" x="34.498125" y="69.277887" style="fill: #444444; stroke: #444444; stroke-width: 0.8"/>
      </g>
     </g>
     <g id="text_13">
      <text style="font-size: 7.5px; font-family: 'DejaVu Sans', 'Bitstream Vera Sans', 'Computer Modern Sans Serif', 'Lucida Grande', 'Verdana', 'Geneva', 'Lucid', 'Arial', 'Helvetica', 'Avant Garde', sans-serif; text-anchor: end; fill: #444444" x="27.498125" y="72.127302" transform="rotate(-0 27.498125 72.127302)">70</text>
     </g>
    </g>
    <g id="ytick_6">
     <g id="line2d_25">
      <path d="M 34.498125 49.477887 
L 224.218125 49.477887 
" clip-path="url(#pce15ad705b)" style="fill: none; stroke: #dddddd; stroke-opacity: 0.5; stroke-width: 0.6; stroke-linecap: square"/>
     </g>
     <g id="line2d_26">
      <g>
       <use xlink:href="#me1d6108b75" x="34.498125" y="49.477887" style="fill: #444444; stroke: #444444; stroke-width: 0.8"/>
      </g>
     </g>
     <g id="text_14">
      <text style="font-size: 7.5px; font-family: 'DejaVu Sans', 'Bitstream Vera Sans', 'Computer Modern Sans Serif', 'Lucida Grande', 'Verdana', 'Geneva', 'Lucid', 'Arial', 'Helvetica', 'Avant Garde', sans-serif; text-anchor: end; fill: #444444" x="27.498125" y="52.327302" transform="rotate(-0 27.498125 52.327302)">80</text>
     </g>
    </g>
    <g id="ytick_7">
     <g id="line2d_27">
      <path d="M 34.498125 29.677887 
L 224.218125 29.677887 
" clip-path="url(#pce15ad705b)" style="fill: none; stroke: #dddddd; stroke-opacity: 0.5; stroke-width: 0.6; stroke-linecap: square"/>
     </g>
     <g id="line2d_28">
      <g>
       <use xlink:href="#me1d6108b75" x="34.498125" y="29.677887" style="fill: #444444; stroke: #444444; stroke-width: 0.8"/>
      </g>
     </g>
     <g id="text_15">
      <text style="font-size: 7.5px; font-family: 'DejaVu Sans', 'Bitstream Vera Sans', 'Computer Modern Sans Serif', 'Lucida Grande', 'Verdana', 'Geneva', 'Lucid', 'Arial', 'Helvetica', 'Avant Garde', sans-serif; text-anchor: end; fill: #444444" x="27.498125" y="32.527302" transform="rotate(-0 27.498125 32.527302)">90</text>
     </g>
    </g>
    <g id="ytick_8">
     <g id="line2d_29">
      <path d="M 34.498125 9.877887 
L 224.218125 9.877887 
" clip-path="url(#pce15ad705b)" style="fill: none; stroke: #dddddd; stroke-opacity: 0.5; stroke-width: 0.6; stroke-linecap: square"/>
     </g>
     <g id="line2d_30">
      <g>
       <use xlink:href="#me1d6108b75" x="34.498125" y="9.877887" style="fill: #444444; stroke: #444444; stroke-width: 0.8"/>
      </g>
     </g>
     <g id="text_16">
      <text style="font-size: 7.5px; font-family: 'DejaVu Sans', 'Bitstream Vera Sans', 'Computer Modern Sans Serif', 'Lucida Grande', 'Verdana', 'Geneva', 'Lucid', 'Arial', 'Helvetica', 'Avant Garde', sans-serif; text-anchor: end; fill: #444444" x="27.498125" y="12.727302" transform="rotate(-0 27.498125 12.727302)">100</text>
     </g>
    </g>
    <g id="text_17">
     <text style="font-size: 8px; font-family: 'DejaVu Sans', 'Bitstream Vera Sans', 'Computer Modern Sans Serif', 'Lucida Grande', 'Verdana', 'Geneva', 'Lucid', 'Arial', 'Helvetica', 'Avant Garde', sans-serif; text-anchor: middle" x="7.51875" y="79.177887" transform="rotate(-90 7.51875 79.177887)">% of questions answered correctly</text>
    </g>
   </g>
   <g id="FillBetweenPolyCollection_1">
    <defs>
     <path id="m98ca40f552" d="M 43.121761 -132.199599 
L 43.121761 -105.893884 
L 48.870852 -152.651027 
L 54.619943 -155.29567 
L 60.369034 -165.228408 
L 66.118125 -159.872456 
L 71.867216 -163.990908 
L 77.616307 -147.418884 
L 83.365398 -168.273051 
L 89.114489 -154.811741 
L 94.86358 -168.299241 
L 100.61267 -165.660551 
L 106.361761 -169.32067 
L 112.110852 -175.414791 
L 117.859943 -137.086741 
L 123.609034 -142.036741 
L 129.358125 -155.649241 
L 135.107216 -150.699241 
L 140.856307 -150.876027 
L 146.605398 -164.311741 
L 152.354489 -158.124241 
L 158.10358 -164.311741 
L 163.85267 -166.786741 
L 169.601761 -172.974241 
L 175.350852 -158.811741 
L 181.099943 -161.561741 
L 186.849034 -162.936741 
L 192.598125 -168.004599 
L 198.347216 -163.365862 
L 204.096307 -168.99817 
L 209.845398 -186.737337 
L 215.594489 -175.082575 
L 215.594489 -188.765588 
L 215.594489 -188.765588 
L 209.845398 -196.465588 
L 204.096307 -201.049599 
L 198.347216 -196.726577 
L 192.598125 -192.483225 
L 186.849034 -177.869241 
L 181.099943 -183.644241 
L 175.350852 -189.48317 
L 169.601761 -191.124241 
L 163.85267 -206.386741 
L 158.10358 -195.249241 
L 152.354489 -192.774241 
L 146.605398 -191.536741 
L 140.856307 -175.272456 
L 135.107216 -180.399241 
L 129.358125 -185.349241 
L 123.609034 -161.836741 
L 117.859943 -156.061741 
L 112.110852 -200.066577 
L 106.361761 -192.844956 
L 100.61267 -202.349379 
L 94.86358 -190.629241 
L 89.114489 -182.647868 
L 83.365398 -191.236741 
L 77.616307 -181.872456 
L 71.867216 -175.703088 
L 66.118125 -173.288527 
L 60.369034 -182.52067 
L 54.619943 -168.57817 
L 48.870852 -163.348884 
L 43.121761 -132.199599 
z
"/>
    </defs>
    <g clip-path="url(#pce15ad705b)">
     <use xlink:href="#m98ca40f552" x="0" y="242.252129" style="fill: #712d9e; fill-opacity: 0.13"/>
    </g>
   </g>
   <g id="line2d_31">
    <path d="M 117.859943 148.477888 
L 117.859943 9.877887 
" clip-path="url(#pce15ad705b)" style="fill: none; stroke-dasharray: 0.9,1.485; stroke-dashoffset: 0; stroke: #141413; stroke-opacity: 0.75; stroke-width: 0.9"/>
   </g>
   <g id="line2d_32">
    <path d="M 175.350852 148.477888 
L 175.350852 9.877887 
" clip-path="url(#pce15ad705b)" style="fill: none; stroke-dasharray: 0.9,1.485; stroke-dashoffset: 0; stroke: #141413; stroke-opacity: 0.75; stroke-width: 0.9"/>
   </g>
   <g id="FillBetweenPolyCollection_2">
    <defs>
     <path id="mf303e7869e" d="M 43.121761 -127.403786 
L 43.121761 -108.481839 
L 48.870852 -154.659709 
L 54.619943 -156.027186 
L 60.369034 -189.963807 
L 66.118125 -144.38194 
L 71.867216 -158.691894 
L 77.616307 -165.922988 
L 83.365398 -170.828309 
L 89.114489 -177.230994 
L 94.86358 -180.213633 
L 100.61267 -197.730072 
L 106.361761 -184.260793 
L 112.110852 -192.286723 
L 117.859943 -108.624241 
L 123.609034 -139.25614 
L 129.358125 -164.838581 
L 135.107216 -172.770096 
L 140.856307 -195.42963 
L 146.605398 -199.086754 
L 152.354489 -207.624241 
L 158.10358 -200.70648 
L 163.85267 -209.157563 
L 169.601761 -202.406483 
L 175.350852 -143.102233 
L 181.099943 -151.34138 
L 186.849034 -142.306847 
L 192.598125 -165.481344 
L 198.347216 -177.943168 
L 204.096307 -181.366011 
L 209.845398 -189.936246 
L 215.594489 -177.786596 
L 215.594489 -198.919579 
L 215.594489 -198.919579 
L 209.845398 -204.369929 
L 204.096307 -191.448186 
L 198.347216 -197.674875 
L 192.598125 -184.457963 
L 186.849034 -160.081636 
L 181.099943 -179.812103 
L 175.350852 -176.931964 
L 169.601761 -212.842 
L 163.85267 -220.94092 
L 158.10358 -209.592002 
L 152.354489 -217.524241 
L 146.605398 -211.211729 
L 140.856307 -206.029568 
L 135.107216 -192.978387 
L 129.358125 -188.534902 
L 123.609034 -164.617343 
L 117.859943 -128.424241 
L 112.110852 -206.314892 
L 106.361761 -200.014833 
L 100.61267 -211.664839 
L 94.86358 -205.334849 
L 89.114489 -190.375181 
L 83.365398 -190.695173 
L 77.616307 -183.67121 
L 71.867216 -194.309281 
L 66.118125 -172.345828 
L 60.369034 -208.666819 
L 54.619943 -180.280582 
L 48.870852 -181.026631 
L 43.121761 -127.403786 
z
"/>
    </defs>
    <g clip-path="url(#pce15ad705b)">
     <use xlink:href="#mf303e7869e" x="0" y="242.252129" style="fill: #eb6834; fill-opacity: 0.13"/>
    </g>
   </g>
   <g id="patch_3">
    <path d="M 34.498125 148.477887 
L 34.498125 9.877887 
" style="fill: none; stroke: #444444; stroke-width: 0.8; stroke-linejoin: miter; stroke-linecap: square"/>
   </g>
   <g id="patch_4">
    <path d="M 34.498125 148.477888 
L 224.218125 148.477888 
" style="fill: none; stroke: #444444; stroke-width: 0.8; stroke-linejoin: miter; stroke-linecap: square"/>
   </g>
   <g id="text_18">
    <text style="font-size: 7px; font-family: 'DejaVu Sans', 'Bitstream Vera Sans', 'Computer Modern Sans Serif', 'Lucida Grande', 'Verdana', 'Geneva', 'Lucid', 'Arial', 'Helvetica', 'Avant Garde', sans-serif; text-anchor: middle; fill: #141413" x="117.859943" y="6.758906" transform="rotate(-0 117.859943 6.758906)">sick</text>
   </g>
   <g id="text_19">
    <text style="font-size: 7px; font-family: 'DejaVu Sans', 'Bitstream Vera Sans', 'Computer Modern Sans Serif', 'Lucida Grande', 'Verdana', 'Geneva', 'Lucid', 'Arial', 'Helvetica', 'Avant Garde', sans-serif; text-anchor: middle; fill: #141413" x="175.350852" y="6.758906" transform="rotate(-0 175.350852 6.758906)">back to normal</text>
   </g>
   <g id="text_20">
    <text style="font-size: 6.3px; font-family: 'DejaVu Sans', 'Bitstream Vera Sans', 'Computer Modern Sans Serif', 'Lucida Grande', 'Verdana', 'Geneva', 'Lucid', 'Arial', 'Helvetica', 'Avant Garde', sans-serif; fill: #555555" transform="translate(48.745687 216.183903)">one resident off sick, that resident's own things, all</text>
    <text style="font-size: 6.3px; font-family: 'DejaVu Sans', 'Bitstream Vera Sans', 'Computer Modern Sans Serif', 'Lucida Grande', 'Verdana', 'Geneva', 'Lucid', 'Arial', 'Helvetica', 'Avant Garde', sans-serif; fill: #555555" transform="translate(40.181133 223.956577)">questions · long-context on 6 households (a larger run is</text>
    <text style="font-size: 6.3px; font-family: 'DejaVu Sans', 'Bitstream Vera Sans', 'Computer Modern Sans Serif', 'Lucida Grande', 'Verdana', 'Geneva', 'Lucid', 'Arial', 'Helvetica', 'Avant Garde', sans-serif; fill: #555555" transform="translate(51.871078 231.729252)">in progress; this count will rise), the others on 10</text>
    <text style="font-size: 6.3px; font-family: 'DejaVu Sans', 'Bitstream Vera Sans', 'Computer Modern Sans Serif', 'Lucida Grande', 'Verdana', 'Geneva', 'Lucid', 'Arial', 'Helvetica', 'Avant Garde', sans-serif; fill: #555555" transform="translate(41.504133 239.501926)">line = 3-day average within each stage, band = ±1 s.e.</text>
   </g>
   <g id="line2d_33">
    <path d="M 43.121761 99.359137 
L 48.870852 90.93884 
L 54.619943 63.814673 
L 60.369034 66.974435 
L 66.118125 64.192201 
L 71.867216 72.364939 
L 77.616307 64.898986 
L 83.365398 62.46482 
L 89.114489 56.472439 
L 94.86358 48.493867 
L 100.61267 45.715626 
L 106.361761 43.540104 
L 112.110852 46.532819 
L 117.859943 107.021637 
L 123.609034 93.202887 
L 129.358125 71.752887 
L 135.107216 55.488602 
L 140.856307 46.001102 
L 146.605398 36.101102 
L 152.354489 34.627887 
L 158.10358 31.327887 
L 163.85267 32.977887 
L 169.601761 30.915387 
L 175.350852 79.455209 
L 181.099943 83.322768 
L 186.849034 78.338583 
L 192.598125 70.927823 
L 198.347216 59.190204 
L 204.096307 51.795726 
L 209.845398 51.614371 
L 215.594489 49.499041 
" clip-path="url(#pce15ad705b)" style="fill: none; stroke: #eb6834; stroke-width: 1.9; stroke-linecap: square"/>
   </g>
   <g id="line2d_34">
    <path d="M 43.121761 95.523602 
L 48.870852 88.240387 
L 54.619943 73.051221 
L 60.369034 73.512888 
L 66.118125 71.137915 
L 71.867216 77.855772 
L 77.616307 71.152201 
L 83.365398 71.433016 
L 89.114489 64.497778 
L 94.86358 62.284499 
L 100.61267 59.287228 
L 106.361761 60.288712 
L 112.110852 62.618506 
L 117.859943 87.221637 
L 123.609034 77.115387 
L 129.358125 66.390387 
L 135.107216 61.911816 
L 140.856307 59.849316 
L 146.605398 55.724316 
L 152.354489 49.065387 
L 158.10358 44.115387 
L 163.85267 46.177887 
L 169.601761 45.765387 
L 175.350852 73.107352 
L 181.099943 70.199197 
L 186.849034 68.690516 
L 192.598125 68.144023 
L 198.347216 71.101047 
L 204.096307 64.826212 
L 209.845398 63.775589 
L 215.594489 59.036404 
" clip-path="url(#pce15ad705b)" style="fill: none; stroke: #2d123f; stroke-width: 1.2; stroke-linecap: square"/>
   </g>
   <g id="line2d_35">
    <path d="M 43.121761 112.979673 
L 48.870852 104.305268 
L 54.619943 84.527094 
L 60.369034 80.834435 
L 66.118125 77.936022 
L 71.867216 83.87253 
L 77.616307 82.357848 
L 83.365398 85.41757 
L 89.114489 78.457451 
L 94.86358 79.328284 
L 100.61267 74.491975 
L 106.361761 66.73909 
L 112.110852 61.812846 
L 117.859943 85.159137 
L 123.609034 80.690387 
L 129.358125 73.127887 
L 135.107216 69.002887 
L 140.856307 65.565387 
L 146.605398 66.940387 
L 152.354489 65.565387 
L 158.10358 64.877887 
L 163.85267 59.377887 
L 169.601761 55.252887 
L 175.350852 82.065387 
L 181.099943 81.148721 
L 186.849034 78.084435 
L 192.598125 77.483061 
L 198.347216 75.197942 
L 204.096307 68.953696 
L 209.845398 65.048126 
L 215.594489 61.342173 
" clip-path="url(#pce15ad705b)" style="fill: none; stroke: #712d9e; stroke-width: 1.2; stroke-linecap: square"/>
   </g>
   <g id="line2d_36">
    <path d="M 43.121761 94.959137 
L 48.870852 88.414078 
L 54.619943 71.319554 
L 60.369034 68.00634 
L 66.118125 65.970534 
L 71.867216 66.186605 
L 77.616307 60.203867 
L 83.365398 56.999774 
L 89.114489 54.080845 
L 94.86358 50.376633 
L 100.61267 46.977604 
L 106.361761 43.831825 
L 112.110852 45.796363 
L 117.859943 102.690387 
L 123.609034 97.327887 
L 129.358125 92.790387 
L 135.107216 89.843959 
L 140.856307 86.956459 
L 146.605398 84.481459 
L 152.354489 80.002887 
L 158.10358 79.177887 
L 163.85267 74.227887 
L 169.601761 72.371637 
L 175.350852 55.688423 
L 181.099943 58.907411 
L 186.849034 57.907393 
L 192.598125 53.546615 
L 198.347216 45.498996 
L 204.096307 44.171541 
L 209.845398 46.825204 
L 215.594489 49.636541 
" clip-path="url(#pce15ad705b)" style="fill: none; stroke: #b178d7; stroke-width: 1.2; stroke-linecap: square"/>
   </g>
   <g id="legend_1">
    <g id="patch_5">
     <path d="M 35.613359 180.158794 
L 46.113359 180.158794 
L 46.113359 175.258794 
L 35.613359 175.258794 
z
" style="fill: #712d9e; fill-opacity: 0.13"/>
    </g>
    <g id="text_21">
     <text style="font-size: 7px; font-family: 'DejaVu Sans', 'Bitstream Vera Sans', 'Computer Modern Sans Serif', 'Lucida Grande', 'Verdana', 'Geneva', 'Lucid', 'Arial', 'Helvetica', 'Avant Garde', sans-serif; text-anchor: start" x="51.713359" y="180.158794" transform="rotate(-0 51.713359 180.158794)">the three language memories</text>
    </g>
    <g id="line2d_37">
     <path d="M 35.613359 187.983481 
L 40.863359 187.983481 
L 46.113359 187.983481 
" style="fill: none; stroke: #eb6834; stroke-width: 1.9; stroke-linecap: square"/>
    </g>
    <g id="text_22">
     <text style="font-size: 7px; font-family: 'DejaVu Sans', 'Bitstream Vera Sans', 'Computer Modern Sans Serif', 'Lucida Grande', 'Verdana', 'Geneva', 'Lucid', 'Arial', 'Helvetica', 'Avant Garde', sans-serif; text-anchor: start" x="51.713359" y="190.433481" transform="rotate(-0 51.713359 190.433481)">3-day timetable</text>
    </g>
    <g id="line2d_38">
     <path d="M 35.613359 198.258169 
L 40.863359 198.258169 
L 46.113359 198.258169 
" style="fill: none; stroke: #2d123f; stroke-width: 1.2; stroke-linecap: square"/>
    </g>
    <g id="text_23">
     <text style="font-size: 7px; font-family: 'DejaVu Sans', 'Bitstream Vera Sans', 'Computer Modern Sans Serif', 'Lucida Grande', 'Verdana', 'Geneva', 'Lucid', 'Arial', 'Helvetica', 'Avant Garde', sans-serif; text-anchor: start" x="51.713359" y="200.708169" transform="rotate(-0 51.713359 200.708169)">reflection</text>
    </g>
    <g id="line2d_39">
     <path d="M 162.984922 177.708794 
L 168.234922 177.708794 
L 173.484922 177.708794 
" style="fill: none; stroke: #712d9e; stroke-width: 1.2; stroke-linecap: square"/>
    </g>
    <g id="text_24">
     <text style="font-size: 7px; font-family: 'DejaVu Sans', 'Bitstream Vera Sans', 'Computer Modern Sans Serif', 'Lucida Grande', 'Verdana', 'Geneva', 'Lucid', 'Arial', 'Helvetica', 'Avant Garde', sans-serif; text-anchor: start" x="179.084922" y="180.158794" transform="rotate(-0 179.084922 180.158794)">long-context</text>
    </g>
    <g id="line2d_40">
     <path d="M 162.984922 187.983481 
L 168.234922 187.983481 
L 173.484922 187.983481 
" style="fill: none; stroke: #b178d7; stroke-width: 1.2; stroke-linecap: square"/>
    </g>
    <g id="text_25">
     <text style="font-size: 7px; font-family: 'DejaVu Sans', 'Bitstream Vera Sans', 'Computer Modern Sans Serif', 'Lucida Grande', 'Verdana', 'Geneva', 'Lucid', 'Arial', 'Helvetica', 'Avant Garde', sans-serif; text-anchor: start" x="179.084922" y="190.433481" transform="rotate(-0 179.084922 190.433481)">retrieval</text>
    </g>
   </g>
  </g>
 </g>
 <defs>
  <clipPath id="pce15ad705b">
   <rect x="34.498125" y="9.877887" width="189.72" height="138.6"/>
  </clipPath>
 </defs>
</svg>
